<svg width="72" height="56" viewBox="0 0 72 56" fill="none" xmlns="http://www.w3.org/2000/svg">
<path opacity="0.75" d="M71.8392 44.9603V19.1572C71.8392 19.007 71.8291 18.8469 71.819 18.6967V18.6867C71.8594 17.2855 71.3542 15.9543 70.3843 14.9334L70.2024 14.7432C70.0508 14.5631 69.8892 14.3929 69.7174 14.2328L60.8158 4.88439C59.8256 3.83345 58.4212 3.23291 56.9662 3.23291C56.7843 3.23291 56.5923 3.24292 56.4105 3.26294C56.2993 3.25293 56.1882 3.24292 56.077 3.24292H38.0414C34.2423 3.24292 31.1505 6.30566 31.1505 10.069V24.2317H10.1847C7.69917 24.2317 5.68848 26.2235 5.68848 28.6857V29.9768C5.68848 32.4391 7.69917 34.4308 10.1847 34.4308H10.3565V37.6737H7.74969C5.26411 37.6737 3.25342 39.6655 3.25342 42.1277V43.4189C3.25342 44.7901 3.87987 46.0212 4.87006 46.8319C3.87987 47.6527 3.25342 48.8738 3.25342 50.255V51.5462C3.25342 54.0084 5.26411 56.0001 7.74969 56.0001H35.1719H64.2815C68.4544 56.0001 71.8493 52.6471 71.8493 48.5034V44.9603H71.8392Z" fill="#CFD8DC"/>
<path d="M68.5858 41.7274V15.9243C68.5858 15.7741 68.5757 15.614 68.5656 15.4638C68.5656 15.4638 68.5656 15.4538 68.5656 15.4438C68.606 14.0426 68.1008 12.7214 67.1308 11.7005L66.949 11.5103C66.7974 11.3301 66.6357 11.16 66.464 10.9999L57.5624 1.65148C56.5722 0.600539 55.1677 0 53.7128 0C53.5309 0 53.3389 0.0100154 53.157 0.0300333C53.0459 0.0200243 52.9348 0.0100111 52.8236 0.0100111H34.788C30.9889 0.0100111 27.8971 3.07275 27.8971 6.83612V20.9988H6.93133C4.44575 20.9988 2.43506 22.9906 2.43506 25.4528V26.7439C2.43506 29.2061 4.44575 31.1979 6.93133 31.1979H7.1031V34.4408H4.49627C2.01069 34.4408 0 36.4326 0 38.8948V40.186C0 41.5572 0.626447 42.7883 1.61664 43.599C0.626447 44.4198 0 45.6409 0 47.0221V48.3132C0 50.7754 2.01069 52.7672 4.49627 52.7672H31.9185H61.028C65.201 52.7672 68.5959 49.4142 68.5959 45.2705V41.7274H68.5858Z" fill="white"/>
<path d="M13.9134 40.2666H32.6158C32.6158 40.2666 33.6565 40.2666 33.6565 43.3694C33.6565 45.3311 33.3433 46.6323 33.3433 46.6323C33.3433 46.6323 33.3029 47.2829 31.1002 47.2829C28.8976 47.2829 13.4385 47.393 13.4385 47.393C13.4385 47.393 16.9345 43.4895 13.9134 40.2666Z" fill="#1E5796"/>
<path d="M10.0332 47.7137C11.6802 47.0231 12.832 45.4116 12.832 43.53C12.832 41.9686 12.0338 40.5873 10.8112 39.7666" stroke="#1E5796" stroke-width="1.7422" stroke-miterlimit="10"/>
<path d="M12.2861 35.8727C12.2861 36.6935 12.9631 37.364 13.7916 37.364H30.4733C31.3018 37.364 31.9788 36.6935 31.9788 35.8727V30.2076C31.9788 29.3869 31.3018 28.7163 30.4733 28.7163H13.7916C12.9631 28.7163 12.2861 29.3869 12.2861 30.2076V35.8727Z" fill="#D22329"/>
<path d="M12.2861 35.8727C12.2861 36.6935 12.9631 37.364 13.7916 37.364H30.4733C31.3018 37.364 31.9788 36.6935 31.9788 35.8727V30.2076C31.9788 29.3869 31.3018 28.7163 30.4733 28.7163H13.7916C12.9631 28.7163 12.2861 29.3869 12.2861 30.2076V35.8727Z" stroke="#1E5796" stroke-width="1.7422" stroke-miterlimit="10"/>
<path d="M6.97168 26.1143H37.3645V32.0696" stroke="#1E5796" stroke-width="1.7422" stroke-miterlimit="10"/>
<path d="M36.3945 33.1303C36.3945 33.6408 36.8088 34.0511 37.3241 34.0511C37.8394 34.0511 38.2537 33.6408 38.2537 33.1303C38.2537 32.6198 37.8394 32.2095 37.3241 32.2095C36.8189 32.2095 36.3945 32.6198 36.3945 33.1303Z" stroke="#1E5796" stroke-width="1.7422" stroke-miterlimit="10"/>
<path d="M37.678 36.0928L38.2842 38.8352H36.4756L37.2839 36.0928C37.2738 36.0928 37.6173 36.1528 37.678 36.0928Z" stroke="#1E5796" stroke-width="1.7422" stroke-miterlimit="10"/>
<path d="M4.53662 47.6832H31.9588C32.9591 47.6832 33.7775 46.8725 33.7775 45.8816V41.3475C33.7775 40.3566 32.9591 39.5459 31.9588 39.5459H4.53662" stroke="#1E5796" stroke-width="1.7422" stroke-miterlimit="10"/>
<path d="M39.2334 12.2316C39.2334 14.3635 40.9814 16.0951 43.1335 16.0951C45.2857 16.0951 47.0337 14.3635 47.0337 12.2316C47.0337 10.0997 45.2857 8.36816 43.1335 8.36816C40.9814 8.37817 39.2334 10.0997 39.2334 12.2316Z" fill="#D22329"/>
<path d="M39.2334 12.2316C39.2334 14.3635 40.9814 16.0951 43.1335 16.0951C45.2857 16.0951 47.0337 14.3635 47.0337 12.2316C47.0337 10.0997 45.2857 8.36816 43.1335 8.36816C40.9814 8.37817 39.2334 10.0997 39.2334 12.2316Z" stroke="#1E5796" stroke-width="1.059" stroke-miterlimit="10"/>
<path d="M40.2543 14.6431L37.0918 20.138L40.3049 19.1471L41.3456 22.0197L44.0332 16.0143" stroke="#1E5796" stroke-width="1.059" stroke-miterlimit="10"/>
<path d="M46.1548 14.8535L49.3174 20.3484L46.1043 19.3676L45.0636 22.2401L43.1641 17.9863" stroke="#1E5796" stroke-width="1.059" stroke-miterlimit="10"/>
<path d="M35.4951 47.1624H61.7351C62.6142 47.1624 63.3416 46.4518 63.3416 45.571V15.9244C63.3416 15.0537 62.6243 14.333 61.7351 14.333H56.0668C55.1877 14.333 54.4602 13.6124 54.4602 12.7416V6.84631C54.4602 5.97553 53.7429 5.25488 52.8537 5.25488H34.8282C33.9492 5.25488 33.2217 5.97553 33.2217 6.84631V21.2492" stroke="#1E5796" stroke-width="2.0946" stroke-miterlimit="10" stroke-linecap="round"/>
<path d="M63.3214 15.2941L53.7529 5.24512" stroke="#1E5796" stroke-width="2.0946" stroke-miterlimit="10" stroke-linecap="round"/>
<path d="M42.3354 26.1143H56.2688" stroke="#1E5796" stroke-width="1.5301" stroke-miterlimit="10" stroke-linecap="round"/>
<path d="M42.3354 29.7969H56.2688" stroke="#1E5796" stroke-width="1.5301" stroke-miterlimit="10" stroke-linecap="round"/>
<path d="M42.3354 33.48H56.2688" stroke="#1E5796" stroke-width="1.5301" stroke-miterlimit="10" stroke-linecap="round"/>
</svg>
