<svg width="55" height="60" viewBox="0 0 55 60" fill="none" xmlns="http://www.w3.org/2000/svg">
<path opacity="0.75" d="M54.2694 53.3598C53.4494 51.4298 52.2194 49.7698 50.6894 48.4598C52.0894 46.3698 52.7794 43.7598 52.3694 40.9798C51.7894 37.0098 48.8994 33.6798 45.0694 32.4798C42.6394 31.7198 40.3194 31.8898 38.2794 32.6398C38.1094 30.5798 37.4394 28.6498 36.3894 26.9998C37.7894 26.3498 38.8894 25.2798 39.5094 23.8598C40.4694 21.6498 40.0594 19.1599 38.4194 17.0699C39.9894 15.0599 40.4094 12.6798 39.5094 10.5098C38.4894 8.04984 36.0594 6.58984 33.0094 6.58984H26.9694C25.4794 4.04984 22.7094 2.33984 19.5594 2.33984H8.08939C5.19939 2.33984 2.85938 4.67984 2.85938 7.56984V54.7398C2.85938 57.6298 5.19939 59.9698 8.08939 59.9698H50.6694C52.7894 59.9698 54.5094 58.2499 54.5094 56.1299C54.7094 55.1999 54.6394 54.2398 54.2694 53.3598Z" fill="#CFD8DC"/>
<path d="M51.9295 51.02C51.1095 49.09 49.8795 47.43 48.3495 46.12C49.7495 44.03 50.4395 41.42 50.0295 38.64C49.4495 34.67 46.5596 31.34 42.7296 30.14C40.2996 29.38 37.9795 29.55 35.9395 30.3C35.7695 28.24 35.0995 26.31 34.0495 24.66C35.4495 24.01 36.5496 22.94 37.1696 21.52C38.1296 19.31 37.7195 16.82 36.0795 14.73C37.6495 12.72 38.0696 10.34 37.1696 8.17C36.1496 5.71 33.7196 4.25 30.6696 4.25H24.6295C23.1395 1.71 20.3695 0 17.2195 0H5.74954C2.85954 0 0.519531 2.34 0.519531 5.23V52.4C0.519531 55.29 2.85954 57.63 5.74954 57.63H48.3295C50.4495 57.63 52.1696 55.91 52.1696 53.79C52.3696 52.86 52.2995 51.9 51.9295 51.02Z" fill="white"/>
<path d="M20.4897 9.47021H30.3797C32.2297 9.47021 32.6697 10.5402 31.3697 11.8502L30.9797 12.2402C29.6697 13.5502 29.6297 15.7302 30.8897 17.0802L31.4497 17.6902C32.7097 19.0502 32.2297 20.1602 30.3697 20.1602H21.6697C19.8197 20.1602 17.2397 20.2002 15.9297 20.2602V18.3802V16.5002" fill="#D22329"/>
<path d="M20.4897 9.47021H30.3797C32.2297 9.47021 32.6697 10.5402 31.3697 11.8502L30.9797 12.2402C29.6697 13.5502 29.6297 15.7302 30.8897 17.0802L31.4497 17.6902C32.7097 19.0502 32.2297 20.1602 30.3697 20.1602H21.6697C19.8197 20.1602 17.2397 20.2002 15.9297 20.2602V18.3802V16.5002" stroke="#1E5796" stroke-width="2.0946" stroke-miterlimit="10" stroke-linecap="round"/>
<path d="M5.24951 5.22021H16.9195C18.7695 5.22021 20.2795 6.73022 20.2795 8.58022V12.5302C20.2795 14.3802 18.7695 15.8902 16.9195 15.8902H5.24951" fill="#D22329"/>
<path d="M5.44971 5.22021H16.9197C18.7697 5.22021 20.2797 6.73022 20.2797 8.58022V12.5302C20.2797 14.3802 18.7697 15.8902 16.9197 15.8902H5.44971" stroke="#1E5796" stroke-width="2.0946" stroke-miterlimit="10" stroke-linecap="round"/>
<path d="M5.44971 52.3802V5.22021" stroke="#1E5796" stroke-width="2.0946" stroke-miterlimit="10" stroke-linecap="round"/>
<path d="M33.1294 40.2401C33.1294 43.6301 35.8794 46.3801 39.2694 46.3801C42.6594 46.3801 45.4094 43.6301 45.4094 40.2401C45.4094 36.8501 42.6594 34.1001 39.2694 34.1001C35.8794 34.1001 33.1294 36.8501 33.1294 40.2401Z" fill="#1E5796"/>
<path d="M24.4805 38.4223C28.4128 37.7295 31.039 33.9802 30.3462 30.0478C29.6534 26.1155 25.904 23.4893 21.9716 24.1821C18.0393 24.8749 15.4132 28.6243 16.106 32.5566C16.7988 36.489 20.5481 39.1151 24.4805 38.4223Z" stroke="#1E5796" stroke-width="2.0946" stroke-miterlimit="10" stroke-linecap="round"/>
<path d="M33.5595 51.9604C33.5595 46.2804 28.9495 41.6704 23.2695 41.6704C17.5795 41.6704 12.9795 46.2804 12.9795 51.9604" stroke="#1E5796" stroke-width="2.0946" stroke-miterlimit="10" stroke-linecap="round"/>
<path d="M29.1596 27.3403C29.1596 27.3403 26.8596 29.2203 23.4496 29.9403C21.3996 30.3703 18.9996 30.2303 16.3296 29.4203" stroke="#1E5796" stroke-width="2.0946" stroke-miterlimit="10" stroke-linecap="round"/>
<path d="M23.2695 46.8101V51.6001" stroke="#1E5796" stroke-width="2.0946" stroke-miterlimit="10" stroke-linecap="round"/>
<path d="M47.5397 52.7603C46.1997 49.5803 43.0497 47.3604 39.3897 47.3604C37.7097 47.3604 36.5597 47.6704 35.2197 48.4904C35.2197 48.4904 36.2697 49.9004 36.0597 52.6004C36.0897 52.5904 47.5397 52.7603 47.5397 52.7603Z" fill="#1E5796"/>
</svg>
