<svg width="248" height="248" viewBox="0 0 248 248" fill="none" xmlns="http://www.w3.org/2000/svg">
<path d="M124 248C192.483 248 248 192.483 248 124C248 55.5167 192.483 0 124 0C55.5167 0 0 55.5167 0 124C0 192.483 55.5167 248 124 248Z" fill="#2576B9"/>
<path d="M203.053 44.4106C184.64 26.045 160.43 14.6309 134.547 12.1125C108.663 9.59417 82.7065 16.1274 61.0992 30.5993C39.4919 45.0712 23.5702 66.5866 16.0462 91.4803C8.52224 116.374 9.86144 143.107 19.8357 167.124C29.81 191.141 47.8023 210.957 70.7478 223.197C93.6933 235.437 120.173 239.343 145.675 234.251C171.178 229.158 194.126 215.382 210.61 195.268C227.095 175.154 236.097 149.947 236.082 123.941C236.106 109.16 233.199 94.5201 227.53 80.8691C221.86 67.218 213.541 54.8263 203.053 44.4106ZM123.591 233.253C101.984 233.242 80.8656 226.825 62.9046 214.814C44.9437 202.803 30.9468 185.737 22.6832 165.773C14.4196 145.809 12.2604 123.843 16.4783 102.651C20.6963 81.4602 31.1021 61.9951 46.3805 46.7167C61.6589 31.4383 81.124 21.0325 102.315 16.8145C123.506 12.5966 145.472 14.7558 165.437 23.0194C185.401 31.283 202.467 45.2799 214.478 63.2408C226.489 81.2018 232.905 102.32 232.916 123.927C232.933 138.289 230.116 152.512 224.628 165.784C219.139 179.055 211.087 191.113 200.932 201.268C190.777 211.423 178.719 219.476 165.447 224.964C152.176 230.452 137.953 233.269 123.591 233.253Z" fill="white"/>
<path d="M69.1085 55.668L68.4342 56.3011C67.9764 55.9862 67.4626 55.762 66.9204 55.6405C66.9079 56.3643 66.7921 57.0826 66.5763 57.7736C66.2645 58.6187 65.7381 59.3681 65.0488 59.948C64.1954 60.7446 63.1458 61.3002 62.0073 61.5582C60.8702 61.8264 59.6818 61.7836 58.5669 61.4343C57.3905 61.064 56.3353 60.3843 55.5117 59.4663C54.9157 58.7965 54.4491 58.0219 54.1355 57.1819C53.8066 56.3594 53.6429 55.4803 53.6538 54.5946C53.6813 53.7019 53.8823 52.8232 54.2456 52.0073C54.6304 51.1353 55.1983 50.3561 55.9108 49.7228C56.451 49.1855 57.0969 48.7662 57.8076 48.4914C58.5182 48.2166 59.2782 48.0923 60.0394 48.1265C59.914 47.7143 59.7432 47.3174 59.5302 46.9429L60.177 46.3374L63.6037 49.8192L62.9156 50.466C62.2609 49.988 61.5168 49.6464 60.7275 49.4614C60.0175 49.2897 59.2768 49.2897 58.5669 49.4614C57.9115 49.6047 57.3074 49.9234 56.8191 50.3834C56.2823 50.8579 55.907 51.4882 55.7457 52.1862C55.605 52.9647 55.691 53.7672 55.9934 54.4983C56.4018 55.4826 56.9951 56.3796 57.7411 57.1406C58.4162 57.9151 59.2163 58.571 60.1082 59.081C60.7189 59.4358 61.4002 59.6519 62.1037 59.7141C62.6103 59.7467 63.1179 59.6668 63.59 59.4801C63.9618 59.3263 64.3059 59.1124 64.6084 58.8471C65.175 58.3271 65.5769 57.6525 65.7644 56.9066C65.9222 56.1579 65.9222 55.3846 65.7644 54.6359C65.6394 53.9333 65.3925 53.258 65.035 52.6404L65.7369 52.0073L69.1085 55.668Z" fill="white"/>
<path d="M77.8322 44.6308L80.1717 48.319L70.3456 54.8835L69.8365 54.1404C70.5246 53.6862 70.8824 53.3009 70.9512 52.9706C70.9902 52.5339 70.8569 52.0992 70.5796 51.7595L65.9418 44.8785C65.787 44.6199 65.5918 44.3876 65.3638 44.1904C65.2554 44.1251 65.1352 44.0817 65.0101 44.0628C64.8849 44.0439 64.7573 44.0499 64.6344 44.0803C64.2093 44.1844 63.8107 44.3766 63.4646 44.6446L62.9692 43.8877L72.121 37.7773L74.1853 40.5297L73.4421 41.0252C73.0096 40.606 72.5003 40.2742 71.942 40.0481C71.595 39.9242 71.2157 39.9242 70.8686 40.0481C70.4104 40.2398 69.9762 40.4846 69.575 40.7775L67.5107 42.1537L70.1117 46.0483L71.2264 45.3052C71.5265 45.124 71.7958 44.8964 72.0246 44.6308C72.0971 44.5389 72.1472 44.4313 72.1711 44.3167C72.195 44.2021 72.192 44.0835 72.1622 43.9702C72.0685 43.6188 71.9199 43.2844 71.7218 42.9794L72.5063 42.4564L74.9559 46.1171L74.2128 46.6263C74.0029 46.3185 73.7423 46.0486 73.4421 45.8281C73.2402 45.705 72.9983 45.6655 72.7678 45.718C72.4369 45.8289 72.1257 45.9914 71.8457 46.1997L70.7172 46.9566L72.4512 49.5576C72.7402 49.9842 72.9604 50.3008 73.1118 50.4797C73.2435 50.6518 73.4195 50.785 73.621 50.865C73.8347 50.9406 74.0679 50.9406 74.2816 50.865C74.6269 50.7302 74.955 50.5547 75.2587 50.342L76.1394 49.7503C76.5052 49.5099 76.8343 49.2178 77.1166 48.8833C77.4191 48.4852 77.5964 48.0062 77.6257 47.5071C77.6475 46.7015 77.4577 45.9044 77.0753 45.1951L77.8322 44.6308Z" fill="white"/>
<path d="M89.9429 38.6999L91.7595 42.7459L81.0664 47.7965L80.6811 46.9708C81.4242 46.6314 81.8508 46.3011 81.9609 45.98C82.0548 45.5576 81.986 45.1153 81.7683 44.7414L78.2039 37.1998C78.0887 36.9182 77.9205 36.6612 77.7085 36.4429C77.6143 36.3578 77.5028 36.294 77.3816 36.256C77.2605 36.218 77.1326 36.2067 77.0066 36.2227C76.5774 36.2712 76.1615 36.402 75.7818 36.608L75.3965 35.7961L81.438 32.9336L81.8233 33.7593C81.4258 33.9198 81.0617 34.1532 80.7499 34.4474C80.6568 34.533 80.5829 34.6374 80.5331 34.7536C80.4833 34.8698 80.4587 34.9953 80.4609 35.1217C80.495 35.4303 80.5885 35.7294 80.7361 36.0025L83.9977 42.8835C84.173 43.276 84.3801 43.6534 84.617 44.012C84.7002 44.1144 84.8051 44.1971 84.9241 44.2542C85.043 44.3113 85.1732 44.3414 85.3051 44.3423C85.7433 44.3041 86.1693 44.1777 86.5575 43.9707C87.1571 43.6965 87.7286 43.3647 88.2639 42.9798C88.7537 42.5976 89.1141 42.0739 89.2961 41.4798C89.5085 40.6762 89.4505 39.825 89.1309 39.0577L89.9429 38.6999Z" fill="white"/>
<path d="M102.715 34.7914L103.871 39.0025L92.5589 42.4155L92.2974 41.5485C92.8304 41.4467 93.3144 41.1708 93.6736 40.7641C93.8346 40.3574 93.8346 39.9047 93.6736 39.498L91.2653 31.516C91.1879 31.2222 91.0623 30.9431 90.8937 30.6903C90.8161 30.5929 90.7178 30.5139 90.606 30.4592C90.4941 30.4044 90.3714 30.3752 90.2469 30.3738C89.8117 30.3526 89.3767 30.4181 88.967 30.5664L88.7056 29.7132L99.2472 26.5342L100.417 29.782L99.55 30.0297C99.2572 29.5046 98.87 29.0381 98.4078 28.6535C98.1109 28.4314 97.746 28.3194 97.3756 28.337C96.8832 28.3856 96.3982 28.4918 95.9306 28.6535L93.5498 29.3692L94.926 33.8556L96.2196 33.4702C96.5578 33.3766 96.8819 33.2378 97.1829 33.0574C97.2769 32.989 97.3542 32.9002 97.409 32.7977C97.4638 32.6953 97.4947 32.5817 97.4995 32.4656C97.5148 32.099 97.4731 31.7322 97.3756 31.3784L98.2701 31.1169L99.55 35.3419L98.683 35.6033C98.5756 35.2472 98.408 34.9121 98.1876 34.6125C98.0281 34.4353 97.8061 34.3268 97.5683 34.3097C97.2213 34.3247 96.8784 34.3896 96.5499 34.5024L95.1737 34.9015L96.0682 37.8878C96.2196 38.3833 96.3435 38.7548 96.4398 38.975C96.5226 39.1712 96.6498 39.3455 96.8114 39.4842C97.001 39.6142 97.2287 39.6772 97.4582 39.6631C97.8233 39.6313 98.1835 39.5574 98.5316 39.4429L99.5638 39.1402C99.9749 39.0117 100.368 38.8314 100.734 38.6034C101.145 38.3028 101.456 37.8858 101.628 37.4062C101.888 36.6446 101.94 35.8275 101.779 35.0391L102.715 34.7914Z" fill="white"/>
<path d="M116.202 33.5667C116.323 34.2157 116.216 34.8867 115.899 35.4659C115.587 35.9848 115.152 36.4195 114.633 36.732C114.123 37.0363 113.578 37.2767 113.009 37.4476C112.497 37.6052 111.972 37.7203 111.44 37.7916L104.848 38.7412L104.725 37.8605C105.151 37.8164 105.566 37.6952 105.949 37.5026C106.061 37.4447 106.158 37.3628 106.234 37.2629C106.31 37.163 106.363 37.0475 106.39 36.9246C106.446 36.6291 106.446 36.3257 106.39 36.0301L105.192 27.7729C105.187 27.5518 105.136 27.3341 105.044 27.1331C104.952 26.9321 104.82 26.7518 104.656 26.6032C104.16 26.3898 103.607 26.351 103.087 26.4931L102.949 25.5848L105.619 25.1306L107.697 24.7866L108.839 24.6077H109.197C109.908 24.5051 110.627 24.4728 111.344 24.5113C112.098 24.5435 112.832 24.766 113.477 25.1581C113.821 25.3734 114.109 25.666 114.319 26.0124C114.529 26.3589 114.656 26.7497 114.688 27.1536C114.741 27.4841 114.725 27.8219 114.643 28.1462C114.56 28.4705 114.411 28.7743 114.207 29.039C113.608 29.7457 112.841 30.29 111.977 30.6217C112.692 30.6321 113.4 30.7671 114.069 31.0208C114.636 31.2264 115.139 31.5777 115.528 32.0391C115.887 32.5041 116.119 33.0541 116.202 33.6355M111.936 27.6353C111.883 27.215 111.711 26.8186 111.44 26.4931C111.158 26.1684 110.784 25.9379 110.367 25.8325C109.841 25.7194 109.297 25.7194 108.771 25.8325L107.752 25.9701L108.427 30.6767L109.225 30.5666C110.058 30.5104 110.843 30.1591 111.44 29.5757C111.659 29.319 111.818 29.0161 111.904 28.6897C111.989 28.3632 112 28.0216 111.936 27.6904M113.202 33.9521C113.142 33.1918 112.786 32.4853 112.211 31.9841C111.918 31.7673 111.583 31.6137 111.228 31.5332C110.873 31.4526 110.504 31.4468 110.147 31.5162L108.578 31.7501L109.032 34.9016V35.1631C109.077 35.542 109.16 35.9154 109.28 36.2778C109.326 36.3998 109.396 36.5114 109.486 36.6059C109.575 36.7005 109.683 36.7761 109.803 36.8283C110.176 36.9329 110.571 36.9329 110.945 36.8283C111.596 36.7426 112.198 36.4367 112.651 35.9613C112.892 35.6813 113.064 35.3486 113.152 34.9899C113.241 34.6313 113.244 34.2569 113.161 33.897" fill="white"/>
<path d="M131.987 37.1034H128.436C128.268 36.9014 128.112 36.6901 127.968 36.4703C127.775 36.1813 127.569 35.8648 127.349 35.4932L126.784 34.5712L125.917 33.0711C125.647 32.5915 125.344 32.1317 125.009 31.6949C124.84 31.4623 124.598 31.2928 124.321 31.2132C123.87 31.1094 123.407 31.0678 122.945 31.0894H122.449V34.5574C122.435 34.8551 122.472 35.1531 122.56 35.4382C122.608 35.5599 122.682 35.6696 122.778 35.7599C122.873 35.8502 122.986 35.9188 123.11 35.9611C123.513 36.0999 123.937 36.1652 124.362 36.1538V37.0483L117.715 36.952V36.0574C118.261 36.138 118.817 36.0209 119.284 35.7272C119.557 35.3854 119.685 34.951 119.642 34.5161L119.766 26.1351C119.808 25.7065 119.696 25.2769 119.449 24.924C118.986 24.6204 118.431 24.4889 117.88 24.5524V23.6304H120.949H121.706C122.009 23.6304 122.284 23.6304 122.546 23.6304H123.564C124.211 23.6304 124.83 23.7129 125.408 23.7818C125.872 23.8256 126.332 23.9038 126.784 24.0157C127.276 24.1544 127.741 24.3729 128.161 24.6625C128.617 24.9604 128.99 25.3692 129.245 25.8506C129.5 26.332 129.629 26.8702 129.619 27.4149C129.609 27.8596 129.501 28.2966 129.303 28.6948C129.088 29.1341 128.766 29.5126 128.367 29.7957C127.851 30.1525 127.272 30.4092 126.661 30.5526C127.129 30.8186 127.537 31.1796 127.858 31.6123C128.188 32.0252 128.697 32.7959 129.399 33.9106C129.701 34.3894 130.032 34.849 130.39 35.2868C130.562 35.5539 130.795 35.7758 131.071 35.9339C131.346 36.092 131.655 36.1816 131.973 36.1951L131.987 37.1034ZM126.633 27.2911C126.691 26.8856 126.634 26.472 126.469 26.0974C126.303 25.7227 126.036 25.402 125.697 25.1717C124.916 24.7821 124.051 24.5929 123.179 24.6212H122.573L122.491 29.9471H123.082C123.935 29.9825 124.785 29.8322 125.573 29.5067C126.234 29.1902 126.592 28.4471 126.606 27.2773" fill="white"/>
<path d="M145.101 39.4702L138.936 38.383L139.101 37.5022C139.482 37.5761 139.87 37.6039 140.257 37.5848C140.374 37.5753 140.484 37.5245 140.568 37.4413C140.651 37.358 140.702 37.2479 140.711 37.1306C140.745 36.9256 140.745 36.7163 140.711 36.5113L140.367 34.8599L136.128 34.1167L135.66 34.9012C135.461 35.2072 135.308 35.5412 135.206 35.892C135.16 36.0432 135.166 36.2057 135.223 36.3531C135.281 36.5005 135.386 36.6241 135.523 36.704C135.844 36.868 136.187 36.9839 136.541 37.048L136.39 37.9288L131.89 37.1306L132.041 36.2499C132.354 36.3207 132.678 36.3207 132.991 36.2499C133.328 36.1142 133.622 35.8909 133.844 35.603C134.222 35.1451 134.563 34.6572 134.862 34.1443L140.367 24.9375L141.289 25.1026L143.463 35.9884C143.629 36.759 143.752 37.282 143.835 37.5572C143.924 37.8224 144.08 38.0597 144.289 38.2453C144.574 38.4501 144.905 38.5824 145.253 38.6307L145.101 39.4702ZM140.174 33.8553L139.184 28.9835L136.651 33.236L140.174 33.8553Z" fill="white"/>
<path d="M160.074 34.5571L159.193 34.2681C159.355 33.6454 159.355 32.9916 159.193 32.3689C159.106 31.9815 158.887 31.6363 158.574 31.3918C158.263 31.1854 157.925 31.0233 157.569 30.9101L155.973 30.3734L152.876 39.5802C152.767 39.8656 152.711 40.1689 152.711 40.4747C152.72 40.6003 152.756 40.7224 152.818 40.832C152.88 40.9416 152.966 41.0358 153.069 41.1078C153.411 41.3694 153.798 41.5654 154.211 41.6858L153.922 42.539L147.619 40.4197L147.895 39.5664C148.395 39.8101 148.965 39.8687 149.505 39.7316C149.873 39.4893 150.134 39.1149 150.234 38.6857L153.331 29.4789L151.954 29.0248C151.509 28.8709 151.047 28.7693 150.578 28.722C150.164 28.6924 149.754 28.8257 149.436 29.0936C148.956 29.5191 148.6 30.0657 148.404 30.6762L147.523 30.3734L148.72 26.8091L161.106 30.9377L160.074 34.5571Z" fill="white"/>
<path d="M163.708 46.9294L157.639 44.0119L158.038 43.1999C158.415 43.4073 158.825 43.5471 159.249 43.6128C159.375 43.6328 159.504 43.626 159.628 43.5928C159.751 43.5596 159.866 43.5008 159.965 43.4201C160.187 43.1988 160.364 42.9373 160.488 42.6495L164.094 35.1354C164.321 34.76 164.395 34.3115 164.3 33.8831C164.19 33.5666 163.749 33.2363 163.006 32.8647L163.392 32.0527L169.461 34.9703L169.075 35.7822C168.69 35.5859 168.277 35.4513 167.851 35.3831C167.724 35.3631 167.595 35.37 167.472 35.4032C167.349 35.4364 167.234 35.4952 167.135 35.5758C166.918 35.8011 166.741 36.0617 166.612 36.3465L162.993 43.8605C162.856 44.1286 162.763 44.4166 162.717 44.7138C162.716 44.8409 162.739 44.9672 162.786 45.0853C162.833 45.2034 162.904 45.311 162.993 45.4019C163.309 45.7105 163.683 45.9537 164.094 46.1175L163.708 46.9294Z" fill="white"/>
<path d="M183.25 44.5486C182.879 44.2757 182.458 44.0792 182.011 43.9706C181.881 43.9425 181.746 43.9452 181.617 43.9787C181.488 44.0121 181.368 44.0754 181.268 44.1633C180.989 44.4595 180.741 44.7821 180.525 45.1266L174.786 53.9481L174.043 53.4527L172.391 40.076L168.4 46.2001C168.168 46.5348 167.974 46.8949 167.822 47.2735C167.786 47.4033 167.779 47.5394 167.8 47.6724C167.822 47.8054 167.871 47.9322 167.946 48.0442C168.228 48.4116 168.578 48.7201 168.979 48.9525L168.483 49.7094L164.354 46.957L164.85 46.2001C165.196 46.4623 165.595 46.6455 166.02 46.7368C166.15 46.757 166.283 46.7478 166.409 46.7097C166.536 46.6715 166.652 46.6056 166.749 46.5166C167.033 46.2248 167.282 45.9016 167.492 45.5533L171.18 39.8696C171.483 39.4154 171.69 39.0576 171.813 38.8237C171.929 38.5952 172.003 38.3484 172.034 38.0943C172.04 37.8439 171.978 37.5965 171.855 37.3787C171.65 37.0797 171.399 36.8149 171.112 36.5942L171.607 35.8511L174.855 37.9567L176.314 49.558L179.617 44.4798C179.84 44.1657 180.02 43.8232 180.153 43.4615C180.195 43.3316 180.209 43.1941 180.192 43.0586C180.175 42.9231 180.129 42.7928 180.057 42.677C179.811 42.3104 179.481 42.0084 179.094 41.7963L179.589 41.0393L183.718 43.7917L183.25 44.5486Z" fill="white"/>
<path d="M191.342 61.4891C191.114 61.3104 190.864 61.1624 190.598 61.0487C190.507 61.0085 190.409 60.9878 190.309 60.9878C190.21 60.9878 190.111 61.0085 190.02 61.0487C189.751 61.2049 189.513 61.4103 189.319 61.6543L187.199 63.925C186.434 63.2287 185.594 62.6194 184.694 62.1084C183.979 61.6955 183.47 61.379 183.126 61.1588C182.733 60.8988 182.365 60.604 182.025 60.2781C181.05 59.414 180.348 58.2858 180.002 57.0302C179.711 55.8884 179.74 54.6889 180.084 53.5622C180.403 52.4756 180.968 51.4773 181.736 50.6447C182.563 49.7368 183.618 49.0668 184.791 48.7042C185.922 48.3452 187.128 48.2929 188.286 48.5529C189.452 48.8246 190.524 49.399 191.397 50.2181C192.501 51.2442 193.192 52.6396 193.337 54.1402C193.718 53.9978 194.075 53.7982 194.397 53.5485L195.085 54.1953L192.209 57.4431L191.548 56.8238C191.891 56.2603 192.116 55.6329 192.209 54.9797C192.304 54.3343 192.252 53.6756 192.057 53.053C191.861 52.4349 191.505 51.8795 191.025 51.4429C190.656 51.1038 190.233 50.8293 189.773 50.6309C189.27 50.4321 188.729 50.3475 188.19 50.3832C187.512 50.4437 186.854 50.6503 186.263 50.9887C185.46 51.4489 184.739 52.0396 184.13 52.7365C183.514 53.3887 182.974 54.1089 182.52 54.8834C182.093 55.6226 181.878 56.4657 181.901 57.3192C181.935 57.7832 182.063 58.2356 182.275 58.6493C182.488 59.0631 182.782 59.4298 183.139 59.7276C183.61 60.2124 184.198 60.5679 184.846 60.7597C185.306 60.8832 185.795 60.8342 186.222 60.6221C186.613 60.4053 186.966 60.1265 187.268 59.7964C187.507 59.5605 187.711 59.2918 187.874 58.9982C187.927 58.8938 187.954 58.7782 187.954 58.661C187.954 58.5438 187.927 58.4283 187.874 58.3239C187.68 57.9842 187.429 57.6814 187.13 57.4293L187.736 56.7688L192.071 60.801L191.342 61.4891Z" fill="white"/>
<path d="M60.9062 184.59C60.6989 184.355 60.4398 184.171 60.1493 184.054C59.8353 183.947 59.502 183.909 59.1722 183.943C58.7868 183.943 58.1676 184.012 57.3281 184.109L52.2224 184.714L49.814 186.723C49.5846 186.902 49.3849 187.116 49.2223 187.356C49.1727 187.472 49.1471 187.596 49.1471 187.721C49.1471 187.847 49.1727 187.971 49.2223 188.086C49.3679 188.503 49.6028 188.883 49.9104 189.201L49.2085 189.779L44.9561 184.645L45.6442 184.067C45.9024 184.405 46.2138 184.697 46.5662 184.934C46.6723 185.005 46.792 185.053 46.9177 185.074C47.0434 185.095 47.1721 185.09 47.2956 185.058C47.5885 184.947 47.8589 184.784 48.0938 184.577L50.3783 182.677L52.5114 176.567C52.5077 176.517 52.5077 176.466 52.5114 176.416V176.319C52.6629 175.943 52.7378 175.541 52.7316 175.136C52.6615 174.795 52.5051 174.477 52.2774 174.214L52.9793 173.636L57.0253 178.466L56.3372 179.03L55.8418 178.48C55.7273 178.367 55.5848 178.286 55.4289 178.246C55.3554 178.227 55.2779 178.228 55.205 178.25C55.1322 178.272 55.0668 178.313 55.0161 178.37C54.8977 178.472 54.8037 178.599 54.7408 178.741C54.6582 178.92 54.5206 179.264 54.328 179.787L52.9518 183.613L56.6124 183.132C57.1563 183.112 57.6864 182.956 58.1538 182.677C58.4703 182.416 58.5804 182.154 58.4841 181.879C58.3535 181.522 58.1522 181.194 57.8923 180.916L58.5942 180.338L61.6769 184.054L60.9062 184.59Z" fill="white"/>
<path d="M64.4977 198.421L61.5114 201.614L52.6899 193.742L53.2817 193.067C53.8872 193.618 54.3551 193.879 54.6579 193.852C55.0845 193.78 55.4655 193.543 55.7176 193.191L61.2224 186.957C61.4354 186.747 61.608 186.5 61.7316 186.228C61.7812 186.112 61.8068 185.988 61.8068 185.863C61.8068 185.737 61.7812 185.613 61.7316 185.498C61.5169 185.118 61.232 184.782 60.8921 184.507L61.4839 183.833L69.7411 191.168L67.5804 193.921L66.9198 193.329C67.2141 192.806 67.4057 192.231 67.4841 191.636C67.522 191.268 67.4295 190.897 67.2226 190.59C66.9184 190.196 66.5723 189.836 66.1905 189.517L64.3326 187.865L61.1536 191.292L62.172 192.187C62.42 192.435 62.7085 192.64 63.0252 192.792C63.1278 192.843 63.2409 192.869 63.3555 192.869C63.4701 192.869 63.5831 192.843 63.6858 192.792C64.0026 192.612 64.2903 192.384 64.539 192.118L65.2409 192.737L62.3096 196.026L61.6352 195.434C61.8739 195.153 62.0688 194.838 62.2132 194.499C62.2583 194.392 62.2815 194.277 62.2815 194.161C62.2815 194.046 62.2583 193.931 62.2132 193.824C62.0186 193.53 61.7822 193.266 61.5114 193.04L60.493 192.131L58.4012 194.43C58.0571 194.829 57.8094 195.118 57.6718 195.311C57.5344 195.48 57.4484 195.685 57.4241 195.902C57.4087 196.128 57.472 196.351 57.603 196.535C57.8226 196.835 58.0766 197.107 58.3599 197.347L59.1581 198.063C59.4833 198.351 59.8441 198.596 60.2315 198.792C60.6971 198.986 61.2106 199.034 61.704 198.93C62.4901 198.746 63.2153 198.362 63.8096 197.815L64.4977 198.421Z" fill="white"/>
<path d="M74.3369 210.325L69.1211 206.884L69.6166 206.128C69.9311 206.354 70.2733 206.539 70.635 206.678C70.7489 206.714 70.872 206.71 70.9828 206.664C71.0935 206.619 71.1847 206.536 71.2405 206.43C71.3443 206.256 71.4187 206.065 71.4607 205.866L71.8047 204.215L68.1991 201.861L67.4559 202.398C67.1549 202.6 66.8858 202.846 66.6577 203.127C66.5583 203.25 66.504 203.403 66.504 203.561C66.504 203.719 66.5583 203.872 66.6577 203.994C66.8773 204.28 67.148 204.523 67.4559 204.71L66.9605 205.467L63.1484 202.948L63.6439 202.205C63.9179 202.409 64.2467 202.525 64.5877 202.54C64.9287 202.555 65.2662 202.467 65.5568 202.288C66.0895 202.016 66.6003 201.703 67.0844 201.352L75.782 195.077L76.5664 195.586L74.2544 206.444C74.103 207.215 74.0067 207.82 73.9791 208.04C73.9519 208.32 74.0043 208.601 74.1305 208.852C74.307 209.154 74.5582 209.405 74.8599 209.582L74.3369 210.325ZM72.0387 203.238L73.0433 198.366L69.0523 201.283L72.0387 203.238Z" fill="white"/>
<path d="M88.9111 217.124L85.6771 215.624C85.6005 215.371 85.5407 215.114 85.4982 214.853C85.4294 214.523 85.3743 214.151 85.3193 213.725C85.2642 213.298 85.2229 212.926 85.1816 212.651L84.989 210.917C84.9381 210.374 84.846 209.836 84.7137 209.307C84.6478 209.023 84.4936 208.768 84.2734 208.578C83.9016 208.323 83.5051 208.106 83.0898 207.931L82.6357 207.724L81.2595 210.876C81.1167 211.14 81.0279 211.43 80.998 211.729C80.9909 211.858 81.0132 211.987 81.0633 212.106C81.1133 212.226 81.1898 212.332 81.287 212.417C81.6047 212.704 81.9674 212.936 82.3604 213.105L81.9889 213.917L75.9336 211.165L76.3052 210.339C76.7733 210.63 77.3285 210.746 77.874 210.669C78.2602 210.463 78.5549 210.119 78.6997 209.706L82.1678 202.082C82.3923 201.711 82.4615 201.266 82.3604 200.843C82.2641 200.541 81.8375 200.21 81.0943 199.866L81.4659 199.027L84.3009 200.224L85.0578 200.527L85.8284 200.871L86.7367 201.298C87.3285 201.6 87.8652 201.889 88.3744 202.178C88.7755 202.404 89.1575 202.661 89.5167 202.949C89.9111 203.273 90.2504 203.659 90.5213 204.091C90.8208 204.553 90.9981 205.083 91.0366 205.632C91.0751 206.181 90.9736 206.73 90.7415 207.229C90.5492 207.636 90.2724 207.997 89.9295 208.289C89.5337 208.613 89.0588 208.827 88.5533 208.908C87.9397 209.026 87.3091 209.026 86.6955 208.908C87.0076 209.318 87.2367 209.786 87.3698 210.284C87.5074 210.807 87.6588 211.66 87.8515 213.037C87.9292 213.62 88.0395 214.199 88.1818 214.771C88.2569 215.091 88.3924 215.395 88.5808 215.665C88.7705 215.897 89.0044 216.089 89.2689 216.229L88.9111 217.124ZM87.9478 205.99C88.1668 205.645 88.2831 205.244 88.2831 204.834C88.2831 204.425 88.1668 204.024 87.9478 203.678C87.3931 203.004 86.6788 202.479 85.8697 202.151L85.5532 202.013L85.3055 201.903L83.0898 206.761L83.6541 207.023C84.4176 207.396 85.2537 207.598 86.1037 207.614C86.8468 207.614 87.4799 207.05 87.9478 205.99Z" fill="white"/>
<path d="M101.187 216.725C101.047 217.154 100.833 217.555 100.554 217.909C100.239 218.318 99.8577 218.672 99.4255 218.955C98.9432 219.259 98.4053 219.465 97.8429 219.56C97.2018 219.651 96.5487 219.599 95.9299 219.409C95.2357 219.195 94.5935 218.839 94.0445 218.363C93.4403 217.888 92.9667 217.268 92.6683 216.56C92.3611 216.914 92.1019 217.308 91.8977 217.73L91.0444 217.482L92.3243 213.12L93.1775 213.367C93.1528 214.022 93.199 214.677 93.3152 215.322C93.4281 215.961 93.6819 216.568 94.0583 217.097C94.4698 217.66 95.0628 218.063 95.7373 218.239C96.2905 218.427 96.8939 218.403 97.43 218.17C97.6644 218.058 97.8718 217.897 98.038 217.698C98.2043 217.498 98.3255 217.265 98.3933 217.014C98.4669 216.739 98.4669 216.45 98.3933 216.175C98.3357 215.903 98.2233 215.645 98.0631 215.418C97.8368 215.111 97.5834 214.826 97.3061 214.565C96.9759 214.253 96.5905 213.909 96.1501 213.532C95.5724 213.032 95.0468 212.474 94.5813 211.867C94.2441 211.451 93.9705 210.987 93.7693 210.491C93.6389 210.123 93.5602 209.739 93.5353 209.349C93.5319 209.014 93.5783 208.68 93.673 208.358C93.8528 207.764 94.1849 207.228 94.6363 206.803C95.123 206.332 95.7263 206 96.3841 205.84C97.1114 205.661 97.8741 205.69 98.586 205.922C99.1784 206.087 99.7216 206.394 100.169 206.817C100.622 207.24 100.987 207.75 101.242 208.317C101.491 208 101.708 207.658 101.889 207.298L102.77 207.56L101.724 211.11L100.843 210.849C100.774 208.73 99.976 207.45 98.4209 206.996C97.9421 206.814 97.4133 206.814 96.9346 206.996C96.7264 207.089 96.5416 207.227 96.394 207.401C96.2464 207.575 96.1395 207.78 96.0813 208C95.9571 208.338 95.9571 208.709 96.0813 209.046C96.2237 209.403 96.4393 209.727 96.7144 209.996C97.0034 210.298 97.485 210.739 98.0906 211.372C98.6961 212.005 99.4668 212.748 99.9484 213.175C100.374 213.649 100.706 214.2 100.926 214.799C101.139 215.432 101.139 216.119 100.926 216.753" fill="white"/>
<path d="M123.399 216.711C123.306 217.894 122.918 219.034 122.27 220.028C121.589 221.045 120.635 221.851 119.518 222.353C118.241 222.907 116.842 223.12 115.458 222.973C114.328 222.906 113.223 222.611 112.21 222.106C111.356 221.669 110.608 221.048 110.022 220.289C109.486 219.598 109.093 218.808 108.866 217.963C108.646 217.162 108.567 216.328 108.632 215.5C108.719 214.333 109.098 213.207 109.733 212.225C110.404 211.197 111.361 210.389 112.485 209.899C113.78 209.322 115.206 209.104 116.614 209.266C117.85 209.33 119.057 209.663 120.151 210.243C121.018 210.71 121.763 211.375 122.325 212.183C122.798 212.881 123.138 213.66 123.33 214.482C123.501 215.211 123.561 215.963 123.509 216.711M120.357 216.422C120.42 215.717 120.42 215.008 120.357 214.303C120.294 213.657 120.117 213.028 119.834 212.445C119.562 211.889 119.149 211.415 118.637 211.069C118.033 210.687 117.341 210.469 116.628 210.435C115.665 210.281 114.679 210.503 113.875 211.055C113.211 211.56 112.708 212.249 112.43 213.037C112.121 213.924 111.935 214.85 111.88 215.789C111.845 216.362 111.845 216.936 111.88 217.509C111.916 218.143 112.041 218.768 112.251 219.367C112.485 220.024 112.894 220.605 113.435 221.046C114.089 221.548 114.882 221.836 115.706 221.872C116.522 221.971 117.348 221.802 118.059 221.39C118.643 221.021 119.117 220.503 119.435 219.89C119.736 219.333 119.954 218.735 120.082 218.115C120.194 217.574 120.277 217.027 120.33 216.477" fill="white"/>
<path d="M135.606 212.569L134.698 212.638C134.554 212.07 134.291 211.54 133.927 211.082C133.678 210.793 133.339 210.594 132.964 210.518C132.507 210.47 132.045 210.47 131.588 210.518L129.221 210.697L129.579 215.376L130.817 215.28C131.241 215.302 131.659 215.164 131.987 214.895C132.223 214.477 132.315 213.993 132.248 213.518H133.157L133.487 217.908H132.565C132.531 217.54 132.443 217.178 132.303 216.835C132.259 216.733 132.192 216.643 132.109 216.569C132.026 216.495 131.928 216.441 131.822 216.408C131.503 216.353 131.177 216.353 130.858 216.408L129.661 216.505L129.95 220.427C129.948 220.849 130.094 221.258 130.363 221.583C130.583 221.831 131.106 221.913 131.891 221.858H132.166V222.766L125.381 223.276V222.367C125.93 222.402 126.473 222.235 126.909 221.899C127.147 221.538 127.24 221.101 127.17 220.675L126.537 212.349C126.528 212.051 126.467 211.758 126.358 211.482C126.299 211.37 126.217 211.272 126.117 211.193C126.018 211.115 125.903 211.059 125.78 211.027C125.37 210.907 124.938 210.874 124.514 210.931L124.445 210.037L135.29 209.225L135.606 212.569Z" fill="white"/>
<path d="M153.633 208.55L152.738 208.798C152.541 208.187 152.196 207.634 151.734 207.188C151.443 206.919 151.069 206.759 150.674 206.734C150.301 206.733 149.93 206.788 149.573 206.899L147.949 207.339L150.55 216.711C150.615 217.007 150.737 217.287 150.908 217.537C150.988 217.636 151.089 217.716 151.203 217.773C151.317 217.83 151.441 217.862 151.569 217.867C151.993 217.894 152.418 217.838 152.821 217.702L153.069 218.569L146.656 220.344L146.408 219.477C147.206 219.257 147.674 219.009 147.784 218.72C147.948 218.314 147.948 217.86 147.784 217.454L145.183 208.096L143.807 208.468C143.359 208.585 142.925 208.751 142.513 208.963C142.158 209.181 141.898 209.525 141.784 209.926C141.611 210.543 141.611 211.195 141.784 211.812L140.889 212.059L139.885 208.426L152.518 204.917L153.633 208.55Z" fill="white"/>
<path d="M171.249 211.028L168.015 212.5L167.313 212.129C167.024 211.964 166.694 211.757 166.336 211.523L165.441 210.918L164.065 209.941C163.626 209.622 163.166 209.332 162.689 209.074C162.429 208.945 162.135 208.902 161.849 208.95C161.411 209.051 160.986 209.204 160.583 209.404L160.129 209.61L161.574 212.762C161.683 213.04 161.842 213.297 162.042 213.519C162.138 213.607 162.251 213.673 162.375 213.713C162.498 213.754 162.629 213.767 162.758 213.753C163.186 213.706 163.601 213.58 163.983 213.381L164.354 214.207L158.299 216.959L157.927 216.133C158.452 215.97 158.905 215.629 159.207 215.17C159.302 214.743 159.233 214.296 159.015 213.918L155.533 206.294C155.398 205.887 155.112 205.547 154.735 205.344C154.186 205.26 153.626 205.372 153.152 205.661L152.767 204.821L155.519 203.445L156.248 203.087L157.019 202.729L157.941 202.33C158.547 202.064 159.125 201.844 159.675 201.67C160.12 201.502 160.581 201.382 161.051 201.312C161.557 201.222 162.074 201.222 162.579 201.312C163.104 201.394 163.603 201.597 164.038 201.904C164.502 202.232 164.865 202.685 165.084 203.211C165.27 203.616 165.364 204.058 165.359 204.505C165.349 204.989 165.217 205.462 164.973 205.881C164.669 206.418 164.257 206.887 163.762 207.257C164.3 207.309 164.823 207.463 165.304 207.711C165.772 207.945 166.57 208.427 167.671 209.087C168.161 209.412 168.671 209.707 169.198 209.968C169.486 210.132 169.805 210.235 170.134 210.271C170.435 210.27 170.734 210.214 171.015 210.106L171.249 211.028ZM162.194 204.45C161.767 203.486 161.175 202.977 160.446 202.936C159.575 202.912 158.713 203.111 157.941 203.514L157.638 203.651L157.391 203.775L159.593 208.619L160.157 208.372C160.946 208.04 161.651 207.537 162.221 206.899C162.46 206.535 162.588 206.11 162.588 205.674C162.588 205.239 162.46 204.813 162.221 204.45" fill="white"/>
<path d="M176.974 192.545C176.593 192.755 176.268 193.052 176.024 193.412C175.957 193.525 175.915 193.651 175.901 193.781C175.887 193.912 175.901 194.044 175.942 194.169C176.107 194.527 176.3 194.872 176.52 195.201L179.189 199.329C179.569 199.893 179.918 200.476 180.235 201.077C180.518 201.744 180.629 202.471 180.56 203.192C180.49 203.913 180.241 204.605 179.836 205.206C179.335 205.93 178.7 206.551 177.965 207.036C177.438 207.382 176.869 207.659 176.272 207.862C175.648 208.081 174.992 208.193 174.331 208.192C173.682 208.191 173.045 208.015 172.487 207.683C172.188 207.499 171.907 207.287 171.648 207.05C171.411 206.845 171.199 206.614 171.015 206.362C170.836 206.128 170.629 205.811 170.368 205.426L167.326 200.802C167.127 200.416 166.787 200.12 166.377 199.976C166.06 199.894 165.551 200.086 164.863 200.54L164.368 199.783L169.969 196.123L170.464 196.88C170.089 197.097 169.758 197.381 169.487 197.719C169.41 197.818 169.354 197.93 169.321 198.051C169.288 198.171 169.279 198.297 169.294 198.421C169.377 198.722 169.512 199.006 169.694 199.26L172.721 203.885C172.991 204.301 173.285 204.701 173.602 205.082C173.853 205.377 174.134 205.644 174.441 205.88C174.924 206.203 175.5 206.358 176.079 206.32C176.693 206.291 177.287 206.096 177.799 205.756C178.382 205.398 178.857 204.889 179.176 204.284C179.47 203.746 179.576 203.127 179.478 202.522C179.412 202.076 179.272 201.643 179.065 201.242C178.827 200.768 178.561 200.308 178.267 199.866L175.652 195.875C175.479 195.603 175.291 195.342 175.088 195.091C174.963 194.933 174.796 194.814 174.607 194.747C174.388 194.672 174.151 194.672 173.932 194.747C173.575 194.874 173.237 195.05 172.928 195.27L172.446 194.513L176.575 191.843L176.974 192.545Z" fill="white"/>
<path d="M190.186 192.104C190.478 192.441 190.706 192.828 190.86 193.247C191.032 193.738 191.125 194.254 191.135 194.774C191.144 195.346 191.032 195.914 190.805 196.439C190.543 197.032 190.153 197.558 189.663 197.981C189.119 198.456 188.481 198.812 187.791 199.027C187.071 199.258 186.305 199.305 185.562 199.164C185.702 199.613 185.896 200.042 186.14 200.444L185.465 201.036L182.465 197.637L183.14 197.045C183.678 197.414 184.255 197.723 184.86 197.967C185.46 198.216 186.111 198.32 186.759 198.27C187.453 198.219 188.108 197.932 188.617 197.458C189.071 197.091 189.367 196.564 189.443 195.985C189.486 195.584 189.397 195.179 189.192 194.832C188.986 194.485 188.673 194.214 188.3 194.059C188.038 193.958 187.755 193.92 187.475 193.949C187.097 193.971 186.723 194.036 186.36 194.141L184.874 194.554C184.142 194.778 183.391 194.93 182.631 195.008C182.097 195.087 181.554 195.087 181.02 195.008C180.633 194.933 180.261 194.793 179.919 194.595C179.633 194.418 179.373 194.2 179.149 193.949C178.746 193.486 178.471 192.926 178.351 192.325C178.202 191.662 178.24 190.971 178.461 190.329C178.665 189.67 179.032 189.073 179.527 188.592C180.023 188.111 180.631 187.762 181.296 187.577C181.895 187.409 182.524 187.372 183.14 187.467C183.004 187.087 182.829 186.723 182.617 186.379L183.305 185.774L185.754 188.526L185.066 189.146C183.25 188.058 181.722 188.058 180.511 189.146C180.112 189.47 179.847 189.931 179.768 190.439C179.734 190.664 179.751 190.892 179.818 191.109C179.885 191.326 179.999 191.525 180.153 191.692C180.393 191.965 180.718 192.149 181.075 192.215C181.452 192.289 181.841 192.289 182.218 192.215C182.617 192.118 183.25 191.953 184.103 191.692C184.931 191.442 185.772 191.235 186.621 191.072C187.248 190.948 187.894 190.948 188.521 191.072C189.175 191.213 189.763 191.572 190.186 192.091" fill="white"/>
<path d="M195.772 177.09L195.167 177.806C194.663 177.407 194.066 177.142 193.433 177.035C193.04 176.977 192.638 177.05 192.29 177.242C191.987 177.456 191.714 177.711 191.479 177.999L190.378 179.279L197.782 185.582C198.006 185.785 198.262 185.952 198.538 186.077C198.66 186.11 198.788 186.119 198.913 186.102C199.038 186.086 199.159 186.044 199.268 185.981C199.635 185.753 199.961 185.464 200.231 185.127L200.905 185.719L196.598 190.852L195.91 190.261C196.433 189.641 196.694 189.173 196.667 188.884C196.582 188.452 196.33 188.071 195.965 187.825L188.575 181.522L187.653 182.595C187.35 182.944 187.083 183.322 186.854 183.724C186.684 184.105 186.66 184.536 186.786 184.935C187.001 185.538 187.377 186.071 187.873 186.476L187.267 187.192L184.391 184.742L192.896 174.765L195.772 177.09Z" fill="white"/>
<path d="M176.754 122.758C175.817 121.814 174.694 121.076 173.457 120.588C172.22 120.1 170.895 119.873 169.566 119.922C168.237 119.971 166.933 120.295 165.735 120.873C164.537 121.451 163.472 122.271 162.607 123.281C166.323 127.836 174.401 126.9 176.754 122.758Z" fill="white"/>
<path d="M174.938 131.786C179.906 134.304 186.938 130.175 187.406 125.29C182.755 122.978 175.97 126.487 174.938 131.786Z" fill="white"/>
<path d="M71.2266 158.539C75.9883 156.351 77.5847 148.438 73.7588 144.681C72.6114 145.363 71.6233 146.283 70.8612 147.378C70.0991 148.474 69.5806 149.721 69.3407 151.034C69.1007 152.347 69.1449 153.696 69.4702 154.991C69.7956 156.285 70.3945 157.495 71.2266 158.539Z" fill="white"/>
<path d="M92.8051 134.07C91.7889 134.94 90.9706 136.017 90.4053 137.23C89.8401 138.442 89.5408 139.761 89.5278 141.099C89.5148 142.437 89.7882 143.761 90.3297 144.985C90.8713 146.208 91.6684 147.301 92.6675 148.19C96.5896 145.685 97.3741 137.745 92.7501 134.07" fill="white"/>
<path d="M175.267 158.497C179.148 154.025 176.946 146.621 172.68 144.735C168.551 149.098 171.029 156.832 175.267 158.497Z" fill="white"/>
<path d="M153.744 148.19C157.653 145.437 158.409 137.951 153.744 134.029C149.395 137.29 149.519 145.148 153.744 148.19Z" fill="white"/>
<path d="M123.206 79.0085C126.812 76.7928 128.202 69.1549 123.289 64.8887C118.843 68.2741 119.16 76.1184 123.206 79.0085Z" fill="white"/>
<path d="M111.247 82.765C115.926 82.1045 120 75.3886 117.357 70.104C111.963 71.205 108.729 78.3612 111.247 82.765Z" fill="white"/>
<path d="M135.289 82.7373C137.89 77.3977 133.734 70.8194 129.068 70.1313C126.811 75.3334 130.045 81.8841 135.289 82.7373Z" fill="white"/>
<path d="M166.626 73.5723C165.479 74.2676 164.495 75.2013 163.74 76.3102C162.986 77.4191 162.478 78.6771 162.253 79.9992C162.027 81.3213 162.088 82.6764 162.432 83.9728C162.775 85.2692 163.394 86.4766 164.245 87.5132C169.172 84.1965 170.328 77.2054 166.626 73.5723Z" fill="white"/>
<path d="M79.6903 73.6143C76.5113 76.9171 76.9379 84.7064 82.3051 87.4451C86.0208 83.6468 84.4382 75.596 79.6903 73.6143Z" fill="white"/>
<path d="M69.6855 122.813C73.5114 127.987 81.8787 126.804 83.7916 123.184C80.8465 119.235 73.6628 118.547 69.6855 122.813Z" fill="white"/>
<path d="M59.1997 126.46C60.8374 131.387 68.1312 133.713 72.6039 130.685C70.8699 125.387 62.9705 123.336 59.1997 126.46Z" fill="white"/>
<path d="M110.366 107.771C110.559 106.458 110.467 105.118 110.098 103.843C109.729 102.568 109.09 101.386 108.225 100.379C107.36 99.372 106.289 98.5622 105.084 98.0046C103.879 97.447 102.569 97.1545 101.241 97.147C100.278 102.803 105.095 108.322 110.366 107.771Z" fill="white"/>
<path d="M96.6725 98.6472C101.985 96.2939 103.292 89.1927 100.512 85.1191C95.2963 87.1009 93.0669 95.0278 96.6725 98.6472Z" fill="white"/>
<path d="M100.044 107.757C100.237 113.964 107.173 117.79 111.205 116.207C111.138 114.875 110.78 113.573 110.157 112.394C109.533 111.214 108.658 110.186 107.595 109.38C106.531 108.575 105.304 108.012 103.999 107.732C102.695 107.452 101.345 107.46 100.044 107.757Z" fill="white"/>
<path d="M135.467 116.414C136.766 116.619 138.093 116.552 139.364 116.217C140.635 115.881 141.822 115.285 142.85 114.465C143.878 113.646 144.724 112.621 145.334 111.457C145.944 110.293 146.306 109.014 146.394 107.702C140.449 106.712 134.105 111.831 135.467 116.414Z" fill="white"/>
<path d="M145.102 97.1328C143.774 97.1624 142.468 97.475 141.271 98.0497C140.074 98.6244 139.014 99.4479 138.16 100.465C137.307 101.483 136.681 102.671 136.323 103.949C135.966 105.228 135.886 106.569 136.088 107.881C141.95 108.17 146.657 101.537 145.102 97.1328Z" fill="white"/>
<path d="M145.968 85.105C143.051 89.0684 144.592 96.4724 149.987 98.6192C153.07 94.4906 151.198 86.7839 145.968 85.105Z" fill="white"/>
<path d="M82.9654 107.674C82.6773 106.368 82.1135 105.137 81.3117 104.066C80.5099 102.995 79.4886 102.107 78.316 101.462C77.1435 100.817 75.8468 100.43 74.5126 100.326C73.1784 100.223 71.8375 100.406 70.5796 100.862C71.1163 105.473 77.1853 110.165 82.9654 107.674Z" fill="white"/>
<path d="M163.474 107.688C168.305 110.056 175.461 106.023 175.722 100.807C174.468 100.379 173.137 100.221 171.816 100.342C170.496 100.463 169.216 100.861 168.06 101.51C166.904 102.16 165.898 103.046 165.108 104.11C164.318 105.175 163.761 106.394 163.474 107.688Z" fill="white"/>
<path d="M200.768 123.886C200.762 109.719 196.858 95.8261 189.483 83.7295C182.108 71.6329 171.546 61.799 158.955 55.3045C146.364 48.81 132.228 45.9054 118.096 46.9087C103.964 47.9121 90.3806 52.7847 78.8331 60.993C67.2857 69.2014 58.2196 80.4289 52.6275 93.4461C47.0354 106.463 45.133 120.768 47.1287 134.795C49.1243 148.821 54.941 162.028 63.9418 172.969C72.9426 183.91 84.7805 192.163 98.159 196.825C96.232 195.272 94.7388 193.248 93.824 190.949C78.4061 184.07 65.8148 172.11 58.1529 157.066C64.4422 155.057 67.3597 151.438 66.6166 146.373C65.3804 146.347 64.1517 146.571 63.0045 147.032C61.8574 147.493 60.8156 148.182 59.942 149.057C58.3475 150.586 57.3272 152.617 57.052 154.81C55.6928 151.914 54.5296 148.93 53.5702 145.878C62.3641 145.603 70.6488 144.24 78.5895 140.139C78.5895 142.892 78.4243 145.465 78.5895 147.97C78.8166 150.531 79.5165 153.027 80.6538 155.332L87.1219 152.828C86.6953 150.984 86.1723 149.263 85.8833 147.502C83.9291 135.515 91.8285 128.689 99.8793 126.46C101.335 126.06 102.859 125.975 104.349 126.213C105.84 126.45 107.263 127.004 108.522 127.836C109.769 128.507 110.831 129.476 111.611 130.658C112.392 131.839 112.867 133.196 112.994 134.607C113.256 138.061 113.339 141.557 113.283 145.025C116.992 145.885 120.257 148.073 122.463 151.176C123.704 149.446 125.285 147.987 127.109 146.889C128.934 145.791 130.963 145.077 133.073 144.791C133.073 142.768 133.073 140.745 133.073 138.708C133.072 137.327 133.168 135.947 133.362 134.579C133.694 132.523 134.66 130.621 136.126 129.14C137.592 127.66 139.483 126.674 141.537 126.322C143.446 125.955 145.417 126.082 147.262 126.694C154.253 129.075 159.221 133.41 160.57 141.006C161.12 144.291 160.856 147.66 159.799 150.819C159.606 151.41 159.427 151.988 159.166 152.787L165.758 155.36C167.866 150.572 168.573 145.285 167.795 140.112C175.983 144.35 184.515 145.699 193.502 145.919C192.441 149.299 191.135 152.597 189.594 155.787C189.084 152.47 187.942 149.897 185.369 148.135C183.747 146.966 181.794 146.345 179.795 146.36C179.605 147.697 179.713 149.059 180.113 150.349C180.513 151.639 181.194 152.824 182.107 153.819C183.875 155.734 186.284 156.934 188.878 157.19C181.052 172.488 168.136 184.578 152.354 191.375C152.023 191.375 151.693 191.458 151.349 191.499C150.113 194.166 148.11 196.403 145.597 197.926C161.519 193.156 175.481 183.385 185.416 170.059C195.351 156.734 200.729 140.563 200.755 123.941M195.387 109.216C190.419 106.56 186.139 107.069 183.538 110.468C186.428 113.84 190.337 113.991 195.676 110.826C196.089 113.111 196.406 115.423 196.599 117.707C191.127 115.262 185.392 113.456 179.506 112.326C183.456 107.702 188.465 105.528 194.176 104.069C194.644 105.748 195.085 107.455 195.429 109.175M187.832 88.5318C188.341 89.4538 188.823 90.3897 189.291 91.2842C187.772 90.9506 186.196 90.9733 184.687 91.3505C183.178 91.7277 181.777 92.4493 180.593 93.4586C179.092 94.6807 178.045 96.3724 177.621 98.2615C181.846 100.505 186.896 98.2615 190.007 92.7567C190.653 94.1329 191.273 95.5779 191.837 97.023C191.479 97.1606 191.135 97.2844 190.805 97.3808C185.519 98.7374 180.632 101.332 176.547 104.95C174.888 106.636 173.352 108.439 171.951 110.345C171.469 110.923 171.056 111.322 170.258 111.212C166.281 110.807 162.268 110.942 158.326 111.611C157.937 111.639 157.546 111.639 157.157 111.611C157.748 110.647 158.189 109.835 158.712 109.092C161.561 105.284 164.966 101.925 168.813 99.1285C174.404 94.9127 180.525 91.4516 187.02 88.8346L187.832 88.5456M162.895 61.9987C163.845 62.5905 164.781 63.2235 165.648 63.8703C163.383 64.1052 161.267 65.1052 159.648 66.7053C158.717 67.6246 157.991 68.7298 157.517 69.9487C157.043 71.1675 156.831 72.4727 156.895 73.7789C158.206 73.9238 159.533 73.7809 160.784 73.3602C162.034 72.9395 163.177 72.2511 164.134 71.3431C165.905 69.687 167.023 67.4506 167.285 65.0401C169.666 66.8227 171.937 68.7483 174.084 70.8064C173.2 71.9245 172.568 73.2201 172.231 74.6047C171.894 75.9893 171.859 77.4304 172.13 78.8296C172.514 81.0735 173.74 83.0865 175.556 84.4583C178.199 82.2839 178.928 79.1737 177.924 74.7148C180.073 77.1034 182.068 79.627 183.896 82.2701C175.45 85.4565 167.636 90.116 160.817 96.0321C160.542 92.0204 159.48 88.1019 157.693 84.4995C155.853 81.04 153.48 77.8914 150.661 75.1689C154.27 70.3949 158.35 65.9964 162.84 62.04M133.238 51.2231C133.238 51.6222 133.142 52.0075 133.101 52.4066C132.523 57.6499 136.555 62.2051 140.422 62.6455C142.074 59.15 141.069 55.6682 137.188 51.8561C140.411 52.4609 143.589 53.2887 146.698 54.3333C142.197 59.0123 141.427 63.0859 144.124 67.3246C148.404 66.1686 150.303 61.1042 148.734 55.0214C151.225 55.9463 153.664 57.0029 156.042 58.1866L145.032 70.2284C144.914 70.2064 144.801 70.1594 144.702 70.0907C140.578 66.9405 136.787 63.3759 133.39 59.4527C131.269 56.8901 129.674 53.9346 128.697 50.7551C130.224 50.8652 131.738 51.0166 133.225 51.2231M97.5535 55.3517C97.0691 56.6004 96.8425 57.9344 96.8874 59.273C96.9324 60.6117 97.2479 61.9275 97.815 63.1409C98.6913 65.0817 100.234 66.6441 102.164 67.5448C102.932 66.4812 103.454 65.2603 103.692 63.9702C103.93 62.6802 103.878 61.3533 103.54 60.0858C103.028 57.8676 101.727 55.9112 99.8793 54.581C102.896 53.5484 105.976 52.7117 109.1 52.0763C105.343 55.9985 104.407 59.3977 106.045 62.8519C107.344 62.5365 108.562 61.9506 109.62 61.1325C110.678 60.3144 111.551 59.2825 112.182 58.1041C113.317 56.0598 113.669 53.6729 113.173 51.3882C114.673 51.1818 116.173 51.0166 117.701 50.9065C117.001 53.2413 115.947 55.4551 114.577 57.471C112.317 60.6266 109.673 63.4882 106.705 65.9897C104.985 67.5173 103.196 68.976 101.476 70.4485L90.5762 58.5032C92.8488 57.3453 95.1826 56.3116 97.5673 55.4067M68.2267 75.8845C67.8743 77.4375 67.9123 79.0536 68.3374 80.5882C68.7625 82.1228 69.5614 83.5282 70.6626 84.6785C74.7912 81.4719 75.493 76.9993 72.5755 71.3018C74.6721 69.2786 76.8822 67.3764 79.195 65.6043C79.4037 67.0928 79.9515 68.5133 80.7962 69.7565C81.6409 70.9996 82.7598 72.0321 84.0667 72.7743C85.6621 73.7462 87.5379 74.1534 89.3927 73.9303C89.9294 69.1687 86.6402 65.2878 81.2318 64.118C82.0988 63.5125 82.9796 62.907 83.8741 62.329C88.2405 66.2583 92.2178 70.5997 95.7507 75.2928C89.9982 80.9214 86.1861 87.5685 85.6631 96.1835C78.9588 90.3777 71.2932 85.7858 63.0109 82.6142C64.6174 80.2716 66.3589 78.0246 68.2267 75.8845ZM56.8043 93.5825C57.7252 95.5788 59.2909 97.2075 61.2494 98.2065C62.3739 98.8122 63.6142 99.1721 64.8883 99.2623C66.1623 99.3524 67.441 99.1708 68.6396 98.7294C68.495 97.4305 68.0294 96.188 67.2845 95.114C66.5397 94.0401 65.5392 93.1684 64.3734 92.5778C62.4019 91.4254 60.0852 91.0109 57.8364 91.4081C58.263 90.5411 58.7172 89.674 59.2126 88.8208C71.1718 94.0228 82.0025 100.463 89.4064 111.501L89.1725 111.886C87.3834 111.707 85.5943 111.432 83.8053 111.377C81.3694 111.294 78.9335 111.377 76.5114 111.377C76.1485 111.447 75.7728 111.406 75.4338 111.258C75.0948 111.111 74.8084 110.864 74.6123 110.551C70.4837 103.918 64.0981 100.229 56.8318 97.9037L55.2216 97.3945C55.7308 96.1009 56.2676 94.821 56.8456 93.5549M51.3408 111.212C52.2779 111.959 53.354 112.513 54.5069 112.841C55.6597 113.17 56.8663 113.266 58.0566 113.124C59.9258 112.886 61.6484 111.988 62.9146 110.592C60.6439 107.234 56.3226 106.615 51.7811 108.872C52.0977 107.317 52.483 105.803 52.9096 104.289C58.3421 105.474 63.2773 108.304 67.0432 112.395C61.3594 113.473 55.8183 115.2 50.5288 117.542C50.7077 115.409 50.9967 113.303 51.3683 111.212M94.1818 121.327C89.5874 123.461 85.2747 126.156 81.3419 129.35C78.3945 131.876 75.0875 133.949 71.5296 135.501C67.316 137.071 62.8996 138.031 58.4144 138.35C56.2538 138.515 54.0656 138.612 51.7811 138.722C51.3408 136.589 51.0105 134.414 50.7627 132.226C51.8449 133.896 53.4084 135.198 55.2465 135.959C57.0846 136.721 59.1107 136.907 61.0567 136.492C60.9567 135.119 60.5469 133.787 59.858 132.595C59.1692 131.403 58.2192 130.383 57.0795 129.611C55.1308 128.234 52.7534 127.599 50.3774 127.822C50.3774 127.024 50.3774 126.212 50.3086 125.4L52.194 124.533C57.4494 122.077 63.0002 120.31 68.7084 119.276C76.9656 117.982 85.1127 117.501 93.1772 120.212L95.0351 120.859C94.5809 121.079 94.3745 121.189 94.1543 121.272M101.035 114.969C93.5763 108.322 90.9065 97.2707 94.7185 88.463C95.9606 85.5816 97.8433 83.0212 100.223 80.9765C109.039 93.4919 114.541 108.037 116.215 123.253C110.71 120.914 105.398 118.836 101.077 114.996M123.522 119.895C123.291 119.54 123.106 119.156 122.972 118.753C121.557 110.5 119.169 102.443 115.857 94.7522C115.542 94.0092 115.469 93.1855 115.651 92.3989C116.33 89.2017 117.856 86.2455 120.068 83.839C120.508 83.3298 120.963 82.8343 121.513 82.215L118.651 79.1599C116.135 81.498 114.097 84.3023 112.65 87.4171C112.485 87.2932 112.361 87.2382 112.306 87.1418L105.88 76.2011C112.43 70.5587 119.352 65.1915 123.343 56.659C127.362 65.0951 134.16 70.5311 140.862 76.2011L134.078 87.5134C132.668 84.3913 130.646 81.5836 128.133 79.2562L125.064 82.0086L126.908 84.1004C129.008 86.4268 130.436 89.2814 131.036 92.3576C131.186 93.0174 131.138 93.7065 130.899 94.3394C127.463 102.512 124.988 111.056 123.522 119.799M143.023 116.964C139.074 119.481 134.866 121.566 130.472 123.184C132.069 107.606 137.697 93.7889 146.477 80.8664C147.358 81.7884 148.198 82.5316 148.886 83.3986C154.638 90.8301 155.092 98.8395 151.308 107.221C149.484 111.153 146.631 114.52 143.051 116.964M175.735 135.584C172.975 134.566 170.39 133.127 168.07 131.318C165.785 129.584 163.542 127.767 161.189 126.198C158.519 124.464 155.684 122.964 152.932 121.368L151.845 120.735C155.395 119.355 159.136 118.528 162.937 118.285C173.462 117.712 183.971 119.685 193.571 124.038L196.984 125.579C196.984 126.308 196.984 126.955 196.984 127.753C195.413 127.535 193.812 127.683 192.308 128.187C190.803 128.691 189.436 129.536 188.314 130.657C186.833 132.1 185.911 134.021 185.713 136.079C189.236 137.456 192.594 135.956 196.722 131.153C196.475 133.621 196.108 136.043 195.621 138.419C195.404 138.465 195.183 138.493 194.961 138.502C188.451 138.661 181.965 137.663 175.804 135.557" fill="white"/>
<path d="M122.739 193.976C121.44 195.721 119.788 197.173 117.892 198.238C115.995 199.302 113.895 199.956 111.729 200.155C115.643 200.779 119.601 201.096 123.564 201.105C127.355 201.097 131.14 200.817 134.89 200.265C132.528 200.178 130.215 199.569 128.116 198.482C126.017 197.394 124.186 195.856 122.752 193.976" fill="white"/>
<path d="M96.9339 158.979C96.9339 152.91 102.246 148.121 109.099 148.121C115.953 148.121 121.265 152.841 121.265 158.979V162.668C121.265 166.796 121.072 168.888 116.861 171.145C121.967 172.961 121.967 176.457 121.967 180.599V184.15C121.967 192.627 116.091 196.646 109.099 196.646C102.108 196.646 96.2183 192.517 96.2183 184.15V183.242C96.2327 182.754 96.4385 182.291 96.7913 181.954C97.1442 181.616 97.6156 181.431 98.1037 181.439H101.792C102.278 181.435 102.745 181.622 103.095 181.959C103.445 182.296 103.649 182.756 103.664 183.242V184.219C103.606 184.965 103.708 185.715 103.962 186.419C104.216 187.123 104.616 187.766 105.136 188.304C105.656 188.842 106.284 189.264 106.979 189.542C107.674 189.82 108.42 189.948 109.168 189.916C112.664 189.916 114.535 187.783 114.535 184.219V178.714C114.555 178.167 114.461 177.621 114.26 177.112C114.06 176.602 113.756 176.139 113.369 175.752C112.982 175.365 112.519 175.061 112.009 174.86C111.5 174.66 110.954 174.566 110.407 174.585H108.329C107.843 174.571 107.383 174.367 107.046 174.017C106.709 173.667 106.522 173.2 106.526 172.714V169.287C106.522 168.801 106.709 168.333 107.046 167.984C107.383 167.634 107.843 167.43 108.329 167.415H109.829C110.378 167.441 110.926 167.352 111.438 167.153C111.951 166.955 112.416 166.651 112.805 166.263C113.193 165.874 113.497 165.409 113.695 164.896C113.894 164.384 113.983 163.836 113.957 163.287V159.805C114.027 159.15 113.953 158.488 113.74 157.865C113.526 157.242 113.179 156.673 112.723 156.199C112.267 155.724 111.712 155.355 111.098 155.117C110.484 154.88 109.825 154.779 109.168 154.823C108.506 154.78 107.842 154.879 107.221 155.115C106.601 155.351 106.038 155.718 105.572 156.19C105.106 156.663 104.747 157.231 104.52 157.854C104.293 158.478 104.202 159.143 104.255 159.805V161.181C104.241 161.67 104.035 162.134 103.683 162.474C103.331 162.814 102.859 163.002 102.37 162.998H98.8743C98.3863 163.002 97.9164 162.813 97.5662 162.473C97.2159 162.133 97.0135 161.669 97.0027 161.181L96.9339 158.979Z" fill="white"/>
<path d="M123.357 160.575C123.357 152.552 128.986 148.093 136.293 148.093C143.601 148.093 149.23 152.579 149.23 160.575V184.122C149.23 192.145 143.601 196.618 136.28 196.618C128.958 196.618 123.343 192.145 123.343 184.122L123.357 160.575ZM130.802 184.122C130.802 185.582 131.382 186.982 132.415 188.014C133.447 189.046 134.847 189.626 136.307 189.626C137.767 189.626 139.167 189.046 140.2 188.014C141.232 186.982 141.812 185.582 141.812 184.122V160.575C141.812 159.115 141.232 157.715 140.2 156.682C139.167 155.65 137.767 155.07 136.307 155.07C134.847 155.07 133.447 155.65 132.415 156.682C131.382 157.715 130.802 159.115 130.802 160.575V184.122Z" fill="white"/>
<path d="M123.22 86.5498C118.458 90.5958 119.518 98.3301 123.22 100.711C127.142 97.8759 127.789 90.3619 123.22 86.5498Z" fill="white"/>
</svg>
