<svg width="548" height="507" viewBox="0 0 548 507" fill="none" xmlns="http://www.w3.org/2000/svg">
<path d="M536.33 507.12H11.67C5.23 507.12 0 501.9 0 495.45V274C0 122.67 122.67 0 274 0C425.33 0 548 122.67 548 274V495.46C548 501.9 542.78 507.12 536.33 507.12Z" fill="#BCDAF2"/>
<path d="M536.33 507.12H11.67C5.23 507.12 0 501.9 0 495.45V274C0 122.67 122.67 0 274 0C425.33 0 548 122.67 548 274V495.46C548 501.9 542.78 507.12 536.33 507.12Z" fill="#BCDAF2"/>
<path opacity="0.2" fill-rule="evenodd" clip-rule="evenodd" d="M306.41 228.14L268.85 108.26L209.24 272.78C231.23 263.41 252.54 253.82 269.99 245.12C281.98 239.13 294.17 233.45 306.41 228.14ZM393.625 507.12H536.33C542.78 507.12 548 501.9 548 495.46V490.275L457.45 298.21C493.71 254.45 531.9 204.54 532.42 188.02C533.25 160.62 492.2 166.82 492.2 166.82C492.2 166.82 456.25 174.9 406.76 190.68L318.538 3.60128C304.043 1.23196 289.165 0 274 0C255.578 0 237.58 1.81793 220.177 5.28418L0 466.413V495.45C0 501.9 5.23 507.12 11.67 507.12H124.572L137.57 470.7C179.93 430.69 242.55 372.96 306.99 318.73C314.54 312.32 321.89 306.23 329.08 300.34L393.625 507.12ZM500.85 185.68C489.81 187.03 464.9 199.17 424.11 227.46L452.14 287.01C465.06 268.47 477.1 250.55 486.16 235.02C490.318 227.869 494.059 221.644 497.301 216.252C512.621 190.764 516.763 183.872 500.85 185.68Z" fill="white"/>
</svg>
