<svg width="147" height="149" viewBox="0 0 147 149" fill="none" xmlns="http://www.w3.org/2000/svg">
<path d="M133.905 78.3917L119.058 73.6998C117.817 73.3075 116.518 73.251 115.288 73.5056C115.324 73.3749 115.377 73.2489 115.405 73.1197C116.13 69.982 114.796 66.7269 112.078 65.0073L102.113 58.687C102.446 58.3365 102.749 57.9532 103.012 57.5235L104.188 55.6345C105.252 53.9292 105.6 51.8688 105.142 49.9109C104.692 47.9516 103.482 46.248 101.778 45.181L88.6067 36.9272C85.8495 35.1999 82.4168 35.473 79.9811 37.3444L73.7079 33.3189C72.0165 32.2341 69.9769 31.8581 68.0028 32.2958C67.7368 32.3552 67.481 32.4281 67.2281 32.5158C66.7584 32.0433 66.2291 31.6209 65.6221 31.2754C65.6147 31.2769 64.9802 30.79 64.6222 30.2571C64.4248 29.9556 64.2641 29.7242 64.889 28.6141C66.9493 24.9697 65.6725 20.344 62.0396 18.2771C58.4422 16.2342 53.8836 17.4599 51.7896 21.0104C50.6744 22.772 49.8942 22.3288 49.0696 21.8557C45.4292 19.7902 40.811 21.0662 38.7492 24.7032C36.7114 28.3046 37.938 32.8705 41.4846 34.9696C43.148 36.029 42.8398 36.784 42.4126 37.5622C39.2853 37.0654 36.105 36.772 32.9028 36.6837L24.2731 36.4451C21.598 36.3703 19.0967 37.706 17.6701 39.9683C16.5249 41.7742 16.2301 43.9478 16.7705 45.9746C16.086 46.2621 15.4441 46.6495 14.8656 47.1249C11.8435 46.654 8.71534 48.0575 7.11953 50.8779C6.19501 52.5096 5.9435 54.3505 6.27616 56.0623C6.51626 57.2978 7.06104 58.4741 7.88591 59.4647C7.74776 60.3412 7.77145 61.2171 7.93778 62.073C8.34566 64.1719 9.63496 66.0841 11.638 67.2242C13.2753 68.1495 15.1062 68.4039 16.8154 68.0718C18.049 67.8321 19.2233 67.2872 20.2119 66.4617C22.5901 66.8337 25.0173 66.0299 26.7337 64.3061C27.5871 65.5228 28.4733 66.71 29.3983 67.8588C29.5621 68.0664 29.7392 68.2637 29.9209 68.4446C30.1026 68.9037 30.3364 69.3526 30.6207 69.7839L30.0049 70.5833C27.564 73.7378 28.0012 78.21 30.9126 80.8497C29.3744 84.0064 30.2035 87.9158 33.0828 90.1523L45.8007 100.039C47.3905 101.275 49.395 101.828 51.3889 101.572C51.5538 101.547 51.7187 101.523 51.8822 101.491C53.6806 101.142 55.2922 100.149 56.4207 98.6937L57.0366 97.8943C57.6074 99.4827 58.6873 100.833 60.1124 101.738L80.6136 114.77C82.2844 115.828 84.2559 116.171 86.1137 115.81C87.0946 115.619 88.0425 115.218 88.9007 114.635C89.1563 116.029 89.7924 117.358 90.7801 118.433L101.362 129.87C102.728 131.342 104.618 132.219 106.63 132.291C107.213 132.317 107.797 132.265 108.362 132.155C109.736 131.888 111.023 131.244 112.061 130.278L113.687 128.765C116.751 125.921 116.937 121.12 114.088 118.051L111.707 115.478C111.876 115.082 112.003 114.664 112.105 114.234C112.567 112.206 112.152 110.109 111.033 108.403L112.758 108.863C113.889 109.168 115.043 109.191 116.143 108.978C118.142 108.589 119.955 107.403 121.092 105.598C122.863 102.806 122.615 99.185 120.488 96.6554L120.268 96.3969C121.743 96.2879 123.182 95.7535 124.38 94.8177C124.729 94.5491 125.048 94.2476 125.334 93.9296L128.678 94.9867C129.893 95.3684 131.171 95.4367 132.397 95.1984C133.103 95.0613 133.797 94.8184 134.449 94.4832C136.228 93.5581 137.566 91.954 138.173 90.0365L138.84 87.914C140.107 83.9141 137.891 79.6562 133.905 78.3917ZM56.5498 63.8801L56.5721 63.8757C56.7876 63.8339 57.0516 63.883 57.2366 64.0015C57.4305 64.126 57.5882 64.3425 57.6331 64.5733C57.6839 64.7951 57.635 65.0595 57.5108 65.2536C57.3866 65.4476 57.169 65.598 56.9475 65.6488L56.5498 63.8801ZM55.9806 64.2842C56.0914 64.1005 56.3015 63.9515 56.5067 63.8962L56.8806 65.6618C56.6785 65.6933 56.4294 65.6414 56.2621 65.5348C55.8315 65.2632 55.7081 64.7079 55.9806 64.2842Z" fill="#CFD8DC"/>
<path d="M133.037 73.926L118.19 69.234C116.949 68.8418 115.651 68.7852 114.42 69.0398C114.456 68.9092 114.509 68.7831 114.538 68.6539C115.262 65.5163 113.928 62.2612 111.211 60.5415L101.245 54.2213C101.578 53.8708 101.881 53.4875 102.145 53.0578L103.32 51.1687C104.384 49.4634 104.732 47.4031 104.274 45.4452C103.824 43.4858 102.614 41.7823 100.911 40.7153L87.7389 32.4615C84.9817 30.7342 81.549 31.0073 79.1133 32.8787L72.8401 28.8532C71.1487 27.7684 69.1091 27.3924 67.135 27.83C66.869 27.8895 66.6132 27.9623 66.3603 28.0501C65.8906 27.5775 65.3613 27.1552 64.7543 26.8097C64.7469 26.8111 64.1124 26.3242 63.7544 25.7913C63.557 25.4899 63.3963 25.2585 64.0212 24.1484C66.0815 20.5039 64.8048 15.8783 61.1718 13.8113C57.5744 11.7684 53.0158 12.9942 50.9218 16.5447C49.8066 18.3062 49.0264 17.8631 48.2018 17.39C44.5615 15.3245 39.9432 16.6004 37.8814 20.2374C35.8436 23.8389 37.0702 28.4048 40.6168 30.5039C42.2802 31.5632 41.972 32.3183 41.5448 33.0965C38.4175 32.5997 35.2372 32.3063 32.035 32.218L23.4053 31.9794C20.7302 31.9045 18.2289 33.2402 16.8023 35.5025C15.6571 37.3085 15.3623 39.4821 15.9027 41.5089C15.2182 41.7964 14.5763 42.1838 13.9978 42.6592C10.9757 42.1883 7.84754 43.5918 6.25173 46.4121C5.32721 48.0439 5.0757 49.8847 5.40837 51.5966C5.64846 52.8321 6.19324 54.0084 7.01811 54.999C6.87996 55.8755 6.90365 56.7514 7.06998 57.6073C7.47786 59.7062 8.76716 61.6183 10.7702 62.7584C12.4075 63.6838 14.2384 63.9382 15.9476 63.6061C17.1812 63.3663 18.3555 62.8215 19.3441 61.996C21.7223 62.368 24.1495 61.5642 25.8659 59.8403C26.7193 61.0571 27.6055 62.2443 28.5305 63.393C28.6943 63.6007 28.8714 63.798 29.0531 63.9789C29.2348 64.4379 29.4686 64.8868 29.7529 65.3182L29.1371 66.1176C26.6962 69.2721 27.1334 73.7443 30.0448 76.3839C28.5066 79.5407 29.3357 83.4501 32.215 85.6866L44.9329 95.5734C46.5227 96.8093 48.5272 97.3621 50.5211 97.1059C50.686 97.0816 50.8509 97.0573 51.0144 97.0255C52.8128 96.676 54.4244 95.6831 55.5529 94.228L56.1688 93.4286C56.7396 95.0169 57.8195 96.3673 59.2446 97.2721L79.7458 110.304C81.4166 111.362 83.3881 111.705 85.2459 111.344C86.2268 111.153 87.1747 110.753 88.0329 110.169C88.2885 111.564 88.9246 112.892 89.9123 113.967L100.495 125.404C101.86 126.877 103.75 127.753 105.762 127.825C106.345 127.851 106.929 127.799 107.494 127.69C108.869 127.422 110.155 126.779 111.193 125.812L112.819 124.299C115.884 121.456 116.069 116.654 113.221 113.585L110.839 111.012C111.009 110.616 111.136 110.198 111.237 109.769C111.699 107.74 111.284 105.643 110.166 103.937L111.89 104.397C113.021 104.703 114.175 104.726 115.275 104.512C117.274 104.123 119.087 102.937 120.225 101.132C121.995 98.3398 121.747 94.7193 119.62 92.1897L119.4 91.9312C120.875 91.8222 122.314 91.2878 123.512 90.352C123.861 90.0834 124.181 89.7819 124.466 89.4638L127.81 90.521C129.025 90.9027 130.303 90.971 131.53 90.7327C132.236 90.5955 132.929 90.3527 133.581 90.0174C135.36 89.0924 136.698 87.4883 137.305 85.5707L137.972 83.4483C139.239 79.4484 137.023 75.1905 133.037 73.926ZM55.682 59.4143L55.7043 59.41C55.9198 59.3681 56.1838 59.4172 56.3688 59.5358C56.5627 59.6603 56.7204 59.8768 56.7653 60.1075C56.8161 60.3294 56.7672 60.5938 56.643 60.7878C56.5188 60.9819 56.3012 61.1323 56.0797 61.1831L55.682 59.4143ZM55.1128 59.8185C55.2236 59.6347 55.4337 59.4858 55.6389 59.4304L56.0128 61.1961C55.8107 61.2276 55.5616 61.1756 55.3943 61.0691C54.9637 60.7975 54.8403 60.2422 55.1128 59.8185Z" fill="white"/>
<path d="M36.767 57.2431C34.0894 53.9014 31.7327 50.2271 29.747 46.3185L27.8347 42.5501L32.0523 42.6651C36.5193 42.7934 40.9275 43.3734 45.1626 44.4118L45.8786 41.4689C41.4344 40.3861 36.8111 39.7707 32.1362 39.6441L22.8311 39.3824L27.045 47.6932C29.1219 51.7926 31.5979 55.6446 34.3993 59.1475L36.767 57.2431Z" fill="#2576B9"/>
<path d="M80.6434 63.2144C80.1788 65.506 79.4306 67.7678 78.4113 69.9432L81.1515 71.2258C82.1213 69.1527 82.8614 67.0084 83.3789 64.8301L90.6453 69.4427L108.66 67.4558L87.0456 53.7366L73.69 55.212L64.3754 49.3059C61.0071 47.1721 57.3982 45.3477 53.6551 43.9047L52.5626 46.7354C56.1233 48.1134 59.5516 49.8416 62.7542 51.8763L80.6434 63.2144ZM86.3272 56.8653L99.75 65.3794L91.3697 66.305L77.9469 57.791L86.3272 56.8653Z" fill="#2576B9"/>
<path d="M36.1354 61.0965L37.0214 62.3223L37.9089 63.5556C38.3485 63.2385 48.7143 55.6242 51.1047 42.6856L48.1291 42.1361C45.9633 53.8494 36.2293 61.0241 36.1354 61.0965Z" fill="#2576B9"/>
<path d="M50.2214 56.7525C49.2125 58.3466 48.8805 60.2495 49.3001 62.0912C49.7122 63.9343 50.8206 65.5109 52.413 66.5222C53.9965 67.5276 55.8346 67.8192 57.5438 67.4871C59.3867 67.1289 61.0879 66.0414 62.1673 64.3332C63.1762 62.7391 63.5008 60.8377 63.0886 58.9946C62.6765 57.1514 61.5681 55.5748 59.9757 54.5635C58.3833 53.5522 56.4979 53.2157 54.6442 53.6377C52.8025 54.0419 51.2289 55.151 50.2214 56.7525ZM58.359 57.1176C60.2414 58.312 60.8046 60.8133 59.613 62.6978C58.4214 64.5822 55.9241 65.1448 54.0417 63.9503C53.1271 63.3711 52.4977 62.4739 52.2612 61.4153C52.0261 60.3642 52.2084 59.2783 52.7862 58.3628C53.364 57.4472 54.2596 56.8174 55.3165 56.5812C56.3525 56.3567 57.4444 56.5384 58.359 57.1176Z" fill="#2576B9"/>
<path d="M67.648 66.0001L66.0285 68.5619L89.1747 83.2454L90.7943 80.6837L67.648 66.0001Z" fill="#2576B9"/>
<path d="M115.776 76.1372L116.191 80.8145L108.54 78.1921L107.562 81.0547L119.627 85.1983L119.196 80.4006L130.288 83.9066L131.198 81.0109L115.776 76.1372Z" fill="#2576B9"/>
<path d="M104.897 108.491L96.001 99.344L93.8357 101.456L99.4746 107.258L95.0787 108.885L106.07 120.76L108.285 118.707L100.385 110.155L104.897 108.491Z" fill="#2576B9"/>
<path d="M94.385 74.4007L94.3229 74.3587C90.9723 72.2369 86.8438 71.5485 82.9994 72.481L83.7117 75.4321C86.7593 74.6854 90.0437 75.2366 92.7091 76.9277L92.7712 76.9697C93.9596 77.7275 95.0268 78.6555 95.9388 79.7373L106.781 92.6302L90.4249 88.2701C89.0667 87.9084 87.7764 87.3404 86.5895 86.5901C83.9331 84.905 82.0363 82.1686 81.3975 79.0796L78.4322 79.6944C79.2407 83.5769 81.6223 87.0224 84.9654 89.1456C86.4083 90.0624 87.9845 90.7525 89.6437 91.1948L115.287 98.0291L98.2502 77.7819C97.1464 76.4671 95.8457 75.3295 94.385 74.4007Z" fill="#2576B9"/>
<path d="M71.695 83.3209C73.4438 81.9228 75.0541 80.3277 76.5093 78.5697L74.1749 76.6366C72.6449 78.4864 70.9275 80.1255 69.0569 81.5318L51.1736 70.1848C47.9711 68.1501 44.944 65.7878 42.1796 63.1505L40.0926 65.348C42.9988 68.12 46.1812 70.6066 49.5509 72.7478L58.8655 78.6539L63.2512 91.3803L84.8713 105.091L78.9673 87.9246L71.695 83.3209ZM65.7633 89.386L63.0161 81.4003L76.4404 89.9218L79.1875 97.9074L65.7633 89.386Z" fill="#2576B9"/>
<path d="M69.2994 35.1403L67.6667 37.6935L86.6102 49.8485L88.2428 47.2953L69.2994 35.1403Z" fill="#2576B9"/>
<path d="M84.2574 38.7774L82.6522 41.3481L95.8257 49.6022L97.4309 47.0315L84.2574 38.7774Z" fill="#2576B9"/>
<path d="M37.015 68.931L35.1589 71.3262L47.8766 81.2133L49.7327 78.8181L37.015 68.931Z" fill="#2576B9"/>
<path d="M38.7506 77.8627L36.8945 80.2579L49.6122 90.1449L51.4683 87.7498L38.7506 77.8627Z" fill="#2576B9"/>
<path d="M57.7498 20.6478C57.7498 20.6478 53.0523 28.937 44.7724 24.2278C44.7724 24.2278 53.0523 28.937 48.3549 37.2262C48.3549 37.2262 53.0523 28.937 61.3323 33.6461C61.3323 33.6461 53.0523 28.937 57.7498 20.6478Z" fill="#2576B9"/>
<path d="M19.1423 48.7346C19.1423 48.7346 16.9725 52.5702 13.1398 50.3877C13.1398 50.3877 16.9711 52.5628 14.794 56.3998C14.794 56.3998 16.9637 52.5642 20.7964 54.7468C20.795 54.7393 16.9711 52.5628 19.1423 48.7346Z" fill="#2576B9"/>
</svg>
