<svg width="102" height="79" viewBox="0 0 102 79" fill="none" xmlns="http://www.w3.org/2000/svg">
<path opacity="0.75" d="M64.5198 79.0001C59.9798 79.0001 55.9204 76.9379 53.2414 73.7002C50.5113 76.9279 46.3701 79.0001 41.7483 79.0001H19.7743C11.7271 79.0001 5.17273 72.4948 5.17273 64.5051V41.7515C5.17273 17.5534 22.0136 4.49299 37.8525 4.49299H41.7483C48.1083 4.49299 53.2823 10.022 53.2823 16.8262V20.0738C53.2823 26.7584 47.9959 32.407 41.7483 32.407H37.8525C37.1367 32.407 35.3473 33.1542 34.652 34.5787H41.7483C44.8567 34.5787 47.7402 35.5052 50.1227 37.0992C52.1371 15.8798 67.8021 4.48303 82.5979 4.48303H86.4937C92.8538 4.48303 98.038 10.012 98.038 16.8162V20.0639C98.038 26.8581 92.864 32.397 86.4937 32.397H82.5979C81.8822 32.397 80.0928 33.1442 79.3974 34.5688H86.4937C94.6943 34.5688 101.371 41.0741 101.371 49.0637V64.5151C101.371 72.5047 94.6943 79.01 86.4937 79.01H64.5198V79.0001Z" fill="#CFD8DC"/>
<path d="M59.9185 74.517C55.3785 74.517 51.3191 72.4549 48.6401 69.2172C45.9099 72.4449 41.7687 74.517 37.1469 74.517H15.173C7.11554 74.517 0.571411 68.0117 0.571411 60.0221V37.2585C0.571411 13.0604 17.4123 0 33.2511 0H37.1469C43.507 0 48.681 5.529 48.681 12.3332V15.5808C48.681 22.2654 43.3945 27.914 37.1469 27.914H33.2511C32.5354 27.914 30.746 28.6612 30.0507 30.0858H37.1469C40.2554 30.0858 43.1389 31.0122 45.5214 32.6062C47.5357 11.3868 63.2007 0 77.9864 0H81.8822C88.2423 0 93.4264 5.529 93.4264 12.3332V15.5808C93.4264 22.375 88.2525 27.914 81.8822 27.914H77.9864C77.2706 27.914 75.4812 28.6612 74.7859 30.0858H81.8822C90.0828 30.0858 96.7598 36.591 96.7598 44.5807V60.032C96.7598 68.0217 90.0828 74.527 81.8822 74.527H59.9185V74.517Z" fill="#2576B9"/>
<path d="M37.147 7.18269C39.3658 7.18269 41.3188 9.61346 41.3188 12.3331V15.5808C41.3188 18.2905 39.376 20.7312 37.147 20.7312H33.2512C28.5169 20.7312 22.4022 24.7958 22.4022 31.3011C22.4022 35.6346 24.6211 37.2684 27.4023 37.2684H37.1367C41.3086 37.2684 44.642 40.5161 44.642 44.5807V60.032C44.642 64.0966 41.3086 67.3442 37.1367 67.3442H15.173C11.2772 67.3442 7.94379 64.0966 7.94379 60.032V37.2585C7.94379 16.3877 21.8501 7.17273 33.2614 7.17273H37.147V7.18269ZM81.8822 7.18269C84.1113 7.18269 86.0541 9.61346 86.0541 12.3331V15.5808C86.0541 18.2905 84.1113 20.7312 81.8822 20.7312H77.9864C73.2623 20.7312 67.1375 24.7958 67.1375 31.3011C67.1375 35.6346 69.3665 37.2684 72.1478 37.2684H81.8822C86.0541 37.2684 89.3977 40.5161 89.3977 44.5807V60.032C89.3977 64.0966 86.0643 67.3442 81.8822 67.3442H59.9082C56.0124 67.3442 52.6688 64.0966 52.6688 60.032V37.2585C52.6688 16.3877 66.5751 7.17273 77.9864 7.17273H81.8822V7.18269Z" fill="#FFD95C"/>
</svg>
