<svg width="24" height="24" viewBox="0 0 24 24" fill="none" xmlns="http://www.w3.org/2000/svg">
<path fill-rule="evenodd" clip-rule="evenodd" d="M12 0C5.37258 0 0 5.37258 0 12C0 18.6274 5.37258 24 12 24C18.6274 24 24 18.6274 24 12C24 5.37258 18.6274 0 12 0ZM11.9947 17H12.0087C12.1877 17 16.4073 16.9974 17.4704 16.7386C17.7661 16.6652 18.0357 16.5221 18.2525 16.3235C18.4693 16.1248 18.6258 15.8775 18.7063 15.6062C18.9057 14.5864 19.0036 13.5521 18.9987 12.5161C19.0127 11.4755 18.9168 10.4369 18.714 9.41307C18.5517 8.86133 18.0824 8.43035 17.4816 8.28069C16.3982 8.00771 12.0485 8 12.0045 8H11.9898C11.8107 8 7.59181 8 6.52729 8.25692C6.2318 8.33461 5.963 8.48073 5.7467 8.68128C5.53041 8.88182 5.37387 9.13006 5.29211 9.40215C5.093 10.4232 4.99537 11.4588 5.00046 12.4961C4.99254 13.5318 5.08759 14.5659 5.28442 15.5856C5.36393 15.8573 5.51975 16.105 5.73627 16.3039C5.9528 16.5029 6.22244 16.6461 6.5182 16.7193C7.61279 16.9923 11.9513 17 11.9947 17ZM10.6063 14.4263L10.6098 10.5724L14.2517 12.4994L10.6063 14.4263Z" fill="white"/>
</svg>
