<svg width="24" height="24" viewBox="0 0 24 24" fill="none" xmlns="http://www.w3.org/2000/svg">
<path d="M0 12.0721C0.000675878 14.9473 1.02057 17.728 2.87635 19.9143C4.73214 22.1007 7.30213 23.5494 10.1244 24V15.5615H7.08V12.0721H10.128V9.41581C10.0607 8.79411 10.1303 8.16512 10.3318 7.57352C10.5333 6.98192 10.8618 6.44222 11.294 5.99275C11.7261 5.54328 12.2514 5.19507 12.8323 4.97285C13.4133 4.75063 14.0358 4.65984 14.6556 4.70695C15.5556 4.72144 16.4556 4.80234 17.3436 4.94843V7.91743H15.8268C15.569 7.88345 15.3069 7.90821 15.0599 7.98985C14.8129 8.07149 14.5873 8.20795 14.3997 8.38912C14.2122 8.57029 14.0675 8.79156 13.9763 9.03656C13.8852 9.28156 13.85 9.54404 13.8732 9.80459V12.0721H17.1984L16.6668 15.5627H13.8732V24C16.1383 23.6398 18.2535 22.6341 19.9682 21.102C21.6829 19.5698 22.9254 17.5754 23.5485 15.3548C24.1716 13.1342 24.1493 10.7805 23.4842 8.57224C22.8191 6.36402 21.5391 4.39379 19.7956 2.89482C18.0522 1.39584 15.9184 0.430907 13.6468 0.114248C11.3753 -0.202412 9.0611 0.142469 6.9783 1.10806C4.8955 2.07365 3.1313 3.6195 1.89457 5.56261C0.657833 7.50572 0.000364044 9.76469 0 12.0721Z" fill="white"/>
</svg>
